<svg xmlns="http://www.w3.org/2000/svg" viewBox="0 0 512 512" style="enable-background:new 0 0 512 512" xml:space="preserve"><path style="fill:#d7d5d9" d="M332.309 384.101H169.482l33.457-107.961h95.912z"/><path style="fill:#acaab1" d="M136.769 374.893h238.662v34.201H136.769z"/><path style="fill:#d7d5d9" d="M7.603 468.918h296.046v35.483H7.603z"/><path style="fill:#d7d5d9" d="M23.825 444.251h43.94v24.669h-43.94zM94.218 444.251h43.94v24.669h-43.94zM164.61 444.251h43.94v24.669h-43.94z"/><g style="opacity:.85"><path style="fill:#3e3b43" d="M298.851 276.14h-95.912l-12.457 40.198h120.827z"/></g><path style="fill:#d7d5d9" d="M235.002 444.251h43.941v24.669h-43.941zM379.758 504.398c0-33.606 27.496-61.102 61.102-61.102 33.606 0 61.102 27.496 61.102 61.102H379.758z"/><path style="opacity:.08;fill:#3e3b43;enable-background:new" d="M440.86 443.296c-20.472 0-38.661 10.214-49.764 25.785 10.871-9.908 25.301-15.97 41.079-15.97 30.266 0 55.565 22.306 60.297 51.287h9.49c0-33.606-27.496-61.102-61.102-61.102z"/><path style="fill:#77757e" d="M411.797 287.165H89.995c-16.051 0-29.064-13.013-29.064-29.064V36.673c0-16.051 13.012-29.064 29.064-29.064h321.801c16.051 0 29.064 13.013 29.064 29.064v221.428c0 16.052-13.012 29.064-29.063 29.064z"/><path style="fill:#dfdfe2" d="M60.933 52.224h379.932v188.851H60.933z"/><path style="fill:#ff3f62" d="M99.966 101.294h137.55v90.71H99.966z"/><path style="fill:#4675cf" d="M265.022 101.294h137.55v29.74h-137.55zM265.022 162.257h137.55v29.74h-137.55z"/><path style="opacity:.42;fill:#fff;enable-background:new" d="M253.769 240.621H151.551L273.214 51.772h102.218z"/><path style="fill:#77757e" d="M136.769 391.997h238.662v17.101H136.769zM23.825 456.58h43.94v12.335h-43.94zM94.218 456.58h43.94v12.335h-43.94zM164.61 456.58h43.94v12.335h-43.94zM235.002 456.58h43.941v12.335h-43.941z"/><path style="fill:#acaab1" d="M7.603 492.065h296.046V504.4H7.603zM381.724 489.056a60.664 60.664 0 0 0-1.966 15.342h122.204a60.67 60.67 0 0 0-1.966-15.342H381.724z"/><path style="opacity:.08;fill:#3e3b43;enable-background:new" d="M411.797 7.609h-38.29c16.051 0 29.064 13.013 29.064 29.064v221.429c0 16.051-13.012 29.063-29.064 29.063h38.29c16.051 0 29.064-13.012 29.064-29.063V36.673c-.001-16.051-13.013-29.064-29.064-29.064z"/><path style="fill:#231f20" d="M89.997 294.766h101.907l-27.658 72.525H136.77a7.605 7.605 0 0 0-7.604 7.604v34.2a7.605 7.605 0 0 0 7.604 7.604h238.664a7.605 7.605 0 0 0 7.604-7.604v-34.2a7.605 7.605 0 0 0-7.604-7.604h-37.885l-27.658-72.525h101.907c20.218 0 36.668-16.45 36.668-36.668V36.669c0-20.218-16.45-36.668-36.668-36.668H89.997c-20.219.001-36.668 16.45-36.668 36.668v221.428c0 20.219 16.449 36.669 36.668 36.669zm343.261-61.306H68.537V59.819h364.721V233.46zM367.83 401.492H144.374v-18.993H367.83v18.993zm-46.558-34.201h-140.75l27.658-72.525h85.436l27.656 72.525zm90.526-87.733H89.997c-11.833 0-21.46-9.628-21.46-21.46v-9.429h364.721v9.429c0 11.833-9.628 21.46-21.46 21.46zM89.997 15.21h321.801c11.833 0 21.46 9.627 21.46 21.46v7.942H68.537V36.67c0-11.834 9.626-21.46 21.46-21.46z"/><path style="fill:#231f20" d="M99.967 199.598h137.547a7.605 7.605 0 0 0 7.604-7.604v-90.707a7.605 7.605 0 0 0-7.604-7.604H99.967a7.605 7.605 0 0 0-7.604 7.604v90.707a7.604 7.604 0 0 0 7.604 7.604zm7.604-90.707H229.91v75.499H107.571v-75.499zM265.024 138.631h137.548a7.605 7.605 0 0 0 7.604-7.604v-29.739a7.605 7.605 0 0 0-7.604-7.604H265.024a7.605 7.605 0 0 0-7.604 7.604v29.739a7.604 7.604 0 0 0 7.604 7.604zm7.604-29.74h122.34v14.532h-122.34v-14.532zM265.024 199.598h137.548a7.605 7.605 0 0 0 7.604-7.604v-29.739a7.605 7.605 0 0 0-7.604-7.604H265.024a7.605 7.605 0 0 0-7.604 7.604v29.739a7.604 7.604 0 0 0 7.604 7.604zm7.604-29.741h122.34v14.532h-122.34v-14.532zM303.653 461.307h-17.105v-17.065a7.605 7.605 0 0 0-7.604-7.604h-43.936a7.605 7.605 0 0 0-7.604 7.604v17.065h-11.249v-17.065a7.605 7.605 0 0 0-7.604-7.604h-43.937a7.605 7.605 0 0 0-7.604 7.604v17.065h-11.249v-17.065a7.605 7.605 0 0 0-7.604-7.604H94.22a7.605 7.605 0 0 0-7.604 7.604v17.065H75.367v-17.065a7.605 7.605 0 0 0-7.604-7.604H23.826a7.605 7.605 0 0 0-7.604 7.604v17.065H7.604A7.605 7.605 0 0 0 0 468.911v35.484a7.605 7.605 0 0 0 7.604 7.604h296.049a7.605 7.605 0 0 0 7.604-7.604v-35.484a7.604 7.604 0 0 0-7.604-7.604zm-61.041-9.46h28.729v9.461h-28.729v-9.461zm-70.394 0h28.73v9.461h-28.73v-9.461zm-70.394 0h28.729v9.461h-28.729v-9.461zm-70.394 0h28.73v9.461H31.43v-9.461zm264.619 44.944H15.208v-20.276h280.84v20.276h.001zM443.294 435.689c-37.885 0-68.706 30.821-68.706 68.706a7.605 7.605 0 0 0 7.604 7.604h122.204a7.605 7.605 0 0 0 7.604-7.604c0-37.885-30.821-68.706-68.706-68.706zm-52.959 61.102c3.347-23.427 21.929-42.004 45.355-45.352v17.473a7.605 7.605 0 0 0 15.208 0v-17.473c23.427 3.348 42.009 21.925 45.356 45.352H390.335z"/></svg>