<svg xmlns="http://www.w3.org/2000/svg" xmlns:xlink="http://www.w3.org/1999/xlink" width="500" zoomAndPan="magnify" viewBox="0 0 375 374.999991" height="500" preserveAspectRatio="xMidYMid meet" version="1.0"><defs><filter x="0%" y="0%" width="100%" height="100%" id="b726690187"><feColorMatrix values="0 0 0 0 1 0 0 0 0 1 0 0 0 0 1 0 0 0 1 0" color-interpolation-filters="sRGB"/></filter><g/><clipPath id="144be6eb29"><path d="M 51 37.5 L 326 37.5 L 326 215 L 51 215 Z M 51 37.5 " clip-rule="nonzero"/></clipPath><clipPath id="0bf9e56450"><path d="M 89 49.386719 L 288 49.386719 L 288 199.9375 L 89 199.9375 Z M 89 49.386719 " clip-rule="nonzero"/></clipPath><clipPath id="382bd28961"><path d="M 313.351562 56.078125 L 313.351562 187.050781 C 313.351562 187.671875 313.308594 188.285156 313.222656 188.878906 C 312.339844 195.109375 306.96875 199.898438 300.484375 199.898438 L 76.269531 199.898438 C 69.167969 199.898438 63.402344 194.148438 63.402344 187.050781 L 63.402344 62.308594 C 63.402344 57.953125 65.570312 54.105469 68.898438 51.789062 C 70.984375 50.320312 73.527344 49.460938 76.269531 49.460938 L 306.730469 49.460938 C 310.382812 49.460938 313.351562 52.421875 313.351562 56.078125 Z M 313.351562 56.078125 " clip-rule="nonzero"/></clipPath><clipPath id="a5b0753a0d"><path d="M 63.320312 49.386719 L 200 49.386719 L 200 199.9375 L 63.320312 199.9375 Z M 63.320312 49.386719 " clip-rule="nonzero"/></clipPath><clipPath id="2ed8d44767"><path d="M 313.351562 56.078125 L 313.351562 187.050781 C 313.351562 187.671875 313.308594 188.285156 313.222656 188.878906 C 312.339844 195.109375 306.96875 199.898438 300.484375 199.898438 L 76.269531 199.898438 C 69.167969 199.898438 63.402344 194.148438 63.402344 187.050781 L 63.402344 62.308594 C 63.402344 57.953125 65.570312 54.105469 68.898438 51.789062 C 70.984375 50.320312 73.527344 49.460938 76.269531 49.460938 L 306.730469 49.460938 C 310.382812 49.460938 313.351562 52.421875 313.351562 56.078125 Z M 313.351562 56.078125 " clip-rule="nonzero"/></clipPath><mask id="7db55be1c4"><g filter="url(#b726690187)"><rect x="-37.5" width="450" fill="#000000" y="-37.499999" height="449.999989" fill-opacity="0.3"/></g></mask><clipPath id="c94521271e"><path d="M 0.199219 1 L 5 1 L 5 6.921875 L 0.199219 6.921875 Z M 0.199219 1 " clip-rule="nonzero"/></clipPath><clipPath id="49f7832d19"><rect x="0" width="5" y="0" height="7"/></clipPath></defs><path fill="#dddded" d="M 370.90625 283.0625 L 369.820312 286.582031 L 6.9375 286.582031 L 5.851562 283.0625 C 4.429688 278.425781 5.375 273.378906 8.390625 269.578125 L 11.746094 265.335938 L 53.976562 211.96875 L 322.78125 211.96875 L 368.367188 269.578125 C 371.378906 273.378906 372.328125 278.425781 370.90625 283.0625 Z M 370.90625 283.0625 " fill-opacity="1" fill-rule="nonzero"/><path fill="#000072" d="M 369.820312 289.085938 L 6.933594 289.085938 C 5.832031 289.085938 4.863281 288.367188 4.539062 287.316406 L 3.457031 283.796875 C 1.792969 278.371094 2.898438 272.476562 6.421875 268.023438 L 52.007812 210.414062 C 52.480469 209.8125 53.207031 209.460938 53.972656 209.460938 L 322.78125 209.460938 C 323.550781 209.460938 324.273438 209.8125 324.75 210.414062 L 370.332031 268.023438 C 373.855469 272.476562 374.964844 278.371094 373.296875 283.796875 L 372.214844 287.316406 C 371.894531 288.367188 370.921875 289.085938 369.820312 289.085938 Z M 8.785156 284.082031 L 367.96875 284.082031 L 368.507812 282.328125 C 369.691406 278.476562 368.902344 274.289062 366.402344 271.128906 L 321.570312 214.46875 L 55.1875 214.46875 L 10.355469 271.128906 C 7.851562 274.289062 7.066406 278.476562 8.25 282.328125 Z M 8.785156 284.082031 " fill-opacity="1" fill-rule="nonzero"/><path fill="#7e7191" d="M 253.601562 252.105469 L 253.601562 252.644531 L 123.152344 252.644531 L 123.152344 252.105469 L 124.34375 237.976562 L 252.414062 237.976562 Z M 253.601562 252.105469 " fill-opacity="1" fill-rule="nonzero"/><path fill="#000072" d="M 253.601562 255.148438 L 123.152344 255.148438 C 121.769531 255.148438 120.648438 254.027344 120.648438 252.644531 L 120.648438 252.105469 C 120.648438 252.035156 120.648438 251.964844 120.65625 251.898438 L 121.847656 237.769531 C 121.957031 236.472656 123.039062 235.476562 124.34375 235.476562 L 252.414062 235.476562 C 253.714844 235.476562 254.800781 236.472656 254.910156 237.769531 L 256.101562 251.898438 C 256.105469 251.96875 256.109375 252.035156 256.109375 252.105469 L 256.109375 252.644531 C 256.109375 254.027344 254.988281 255.148438 253.601562 255.148438 Z M 125.832031 250.140625 L 250.921875 250.140625 L 250.109375 240.480469 L 126.648438 240.480469 Z M 125.832031 250.140625 " fill-opacity="1" fill-rule="nonzero"/><path fill="#000072" d="M 342.445312 255.148438 L 253.601562 255.148438 C 252.21875 255.148438 251.097656 254.027344 251.097656 252.644531 L 251.097656 252.210938 L 250.109375 240.480469 L 126.648438 240.480469 L 125.660156 252.210938 L 125.660156 252.644531 C 125.660156 254.027344 124.535156 255.148438 123.152344 255.148438 L 34.3125 255.148438 C 33.351562 255.148438 32.476562 254.597656 32.054688 253.734375 C 31.636719 252.871094 31.75 251.847656 32.34375 251.09375 L 64.539062 210.414062 C 65.011719 209.8125 65.738281 209.464844 66.503906 209.464844 L 310.253906 209.464844 C 311.019531 209.464844 311.742188 209.8125 312.21875 210.414062 L 344.410156 251.09375 C 345.007812 251.847656 345.117188 252.871094 344.699219 253.734375 C 344.28125 254.597656 343.40625 255.148438 342.445312 255.148438 Z M 255.953125 250.140625 L 337.269531 250.140625 L 309.039062 214.46875 L 67.71875 214.46875 L 39.484375 250.140625 L 120.804688 250.140625 L 121.847656 237.769531 C 121.957031 236.472656 123.039062 235.476562 124.34375 235.476562 L 252.414062 235.476562 C 253.714844 235.476562 254.800781 236.472656 254.910156 237.769531 Z M 255.953125 250.140625 " fill-opacity="1" fill-rule="nonzero"/><path fill="#000072" d="M 58.746094 221.140625 L 318.007812 221.140625 L 318.007812 226.144531 L 58.746094 226.144531 Z M 58.746094 221.140625 " fill-opacity="1" fill-rule="nonzero"/><path fill="#000072" d="M 252.414062 235.476562 L 329.351562 235.476562 L 329.351562 240.480469 L 252.414062 240.480469 Z M 252.414062 235.476562 " fill-opacity="1" fill-rule="nonzero"/><path fill="#000072" d="M 47.402344 235.476562 L 124.34375 235.476562 L 124.34375 240.480469 L 47.402344 240.480469 Z M 47.402344 235.476562 " fill-opacity="1" fill-rule="nonzero"/><path fill="#000072" d="M 84.101562 252.054688 L 93.765625 211.375 L 98.644531 212.53125 L 88.976562 253.207031 Z M 84.101562 252.054688 " fill-opacity="1" fill-rule="nonzero"/><path fill="#000072" d="M 126.839844 238.1875 L 121.847656 237.765625 L 124.046875 211.757812 L 129.039062 212.175781 Z M 126.839844 238.1875 " fill-opacity="1" fill-rule="nonzero"/><path fill="#000072" d="M 153.671875 211.96875 L 158.683594 211.96875 L 158.683594 237.976562 L 153.671875 237.976562 Z M 153.671875 211.96875 " fill-opacity="1" fill-rule="nonzero"/><path fill="#000072" d="M 185.871094 211.96875 L 190.882812 211.96875 L 190.882812 237.976562 L 185.871094 237.976562 Z M 185.871094 211.96875 " fill-opacity="1" fill-rule="nonzero"/><path fill="#000072" d="M 278.125 212.550781 L 283 211.394531 L 292.660156 252.074219 L 287.785156 253.230469 Z M 278.125 212.550781 " fill-opacity="1" fill-rule="nonzero"/><path fill="#000072" d="M 249.917969 238.1875 L 247.71875 212.175781 L 252.710938 211.757812 L 254.910156 237.765625 Z M 249.917969 238.1875 " fill-opacity="1" fill-rule="nonzero"/><path fill="#000072" d="M 218.070312 211.96875 L 223.082031 211.96875 L 223.082031 237.976562 L 218.070312 237.976562 Z M 218.070312 211.96875 " fill-opacity="1" fill-rule="nonzero"/><path fill="#000072" d="M 364.320312 274.886719 C 247.527344 277.722656 129.230469 277.699219 12.4375 274.785156 C 12.253906 274.777344 12.109375 274.625 12.113281 274.441406 C 12.117188 274.261719 12.261719 274.121094 12.4375 274.113281 C 84.542969 272.046875 160.070312 271.855469 232.363281 272.070312 C 276.355469 272.328125 320.335938 272.738281 364.320312 274.015625 C 364.5625 274.019531 364.75 274.222656 364.742188 274.460938 C 364.734375 274.691406 364.546875 274.878906 364.320312 274.886719 Z M 364.320312 274.886719 " fill-opacity="1" fill-rule="nonzero"/><path fill="#dddded" d="M 322.78125 51.207031 L 322.78125 211.96875 L 53.976562 211.96875 L 53.976562 51.207031 C 53.976562 45.019531 58.992188 40.007812 65.1875 40.007812 L 311.566406 40.007812 C 317.761719 40.007812 322.78125 45.019531 322.78125 51.207031 Z M 322.78125 51.207031 " fill-opacity="1" fill-rule="nonzero"/><g clip-path="url(#144be6eb29)"><path fill="#000072" d="M 322.785156 214.46875 L 53.972656 214.46875 C 52.589844 214.46875 51.46875 213.347656 51.46875 211.96875 L 51.46875 51.207031 C 51.46875 43.652344 57.621094 37.503906 65.1875 37.503906 L 311.570312 37.503906 C 319.132812 37.503906 325.289062 43.652344 325.289062 51.207031 L 325.289062 211.96875 C 325.289062 213.347656 324.167969 214.46875 322.785156 214.46875 Z M 56.480469 209.464844 L 320.277344 209.464844 L 320.277344 51.207031 C 320.277344 46.410156 316.371094 42.507812 311.566406 42.507812 L 65.1875 42.507812 C 60.386719 42.507812 56.480469 46.410156 56.480469 51.207031 Z M 56.480469 209.464844 " fill-opacity="1" fill-rule="nonzero"/></g><path fill="#009eed" d="M 313.351562 56.078125 L 313.351562 187.050781 C 313.351562 187.671875 313.308594 188.285156 313.222656 188.878906 C 312.339844 195.109375 306.96875 199.898438 300.484375 199.898438 L 76.269531 199.898438 C 69.167969 199.898438 63.402344 194.148438 63.402344 187.050781 L 63.402344 62.308594 C 63.402344 57.953125 65.570312 54.105469 68.898438 51.789062 C 70.984375 50.320312 73.527344 49.460938 76.269531 49.460938 L 306.730469 49.460938 C 310.382812 49.460938 313.351562 52.421875 313.351562 56.078125 Z M 313.351562 56.078125 " fill-opacity="1" fill-rule="nonzero"/><g clip-path="url(#0bf9e56450)"><g clip-path="url(#382bd28961)"><path fill="#ffffff" d="M 168.804688 196.984375 C 150.242188 204.484375 134.796875 209.882812 110.183594 213.0625 C 102.863281 214 95.902344 214.617188 89.292969 214.925781 L 231.226562 24.710938 C 246.023438 45.578125 268.125 39.933594 287.097656 33.84375 Z M 168.804688 196.984375 " fill-opacity="0.15" fill-rule="nonzero"/></g></g><g clip-path="url(#a5b0753a0d)"><g clip-path="url(#2ed8d44767)"><path fill="#ffffff" d="M 11.535156 265.285156 C -6.386719 263.707031 -13.050781 262.4375 -25.382812 256.578125 L 172.84375 -20.691406 L 199.34375 -20 C 196.765625 -4.660156 190.671875 4.6875 192.054688 14.625 Z M 11.535156 265.285156 " fill-opacity="0.15" fill-rule="nonzero"/></g></g><path fill="#000072" d="M 322.78125 51.207031 L 322.78125 211.96875 L 53.976562 211.96875 L 53.976562 173.71875 C 115.085938 188.457031 280.710938 212.554688 278.433594 40.007812 L 311.566406 40.007812 C 317.761719 40.007812 322.78125 45.019531 322.78125 51.207031 Z M 322.78125 51.207031 " fill-opacity="0.3" fill-rule="nonzero"/><path fill="#000072" d="M 370.90625 283.0625 L 369.820312 286.582031 L 6.9375 286.582031 L 5.851562 283.0625 C 4.429688 278.425781 5.375 273.378906 8.390625 269.578125 L 11.746094 265.335938 C 47.898438 274.757812 131.660156 287.371094 158.253906 211.96875 L 322.78125 211.96875 L 368.367188 269.578125 C 371.378906 273.378906 372.328125 278.425781 370.90625 283.0625 Z M 370.90625 283.0625 " fill-opacity="0.3" fill-rule="nonzero"/><path fill="#000072" d="M 300.488281 202.089844 L 76.269531 202.089844 C 67.964844 202.089844 61.210938 195.34375 61.210938 187.050781 L 61.210938 62.308594 C 61.210938 54.015625 67.964844 47.269531 76.269531 47.269531 L 306.730469 47.269531 C 311.589844 47.269531 315.542969 51.21875 315.542969 56.074219 L 315.542969 187.050781 C 315.542969 195.34375 308.789062 202.089844 300.488281 202.089844 Z M 76.269531 51.648438 C 70.382812 51.648438 65.597656 56.429688 65.597656 62.308594 L 65.597656 187.050781 C 65.597656 192.925781 70.382812 197.707031 76.269531 197.707031 L 300.488281 197.707031 C 306.371094 197.707031 311.160156 192.925781 311.160156 187.050781 L 311.160156 56.074219 C 311.160156 53.632812 309.171875 51.648438 306.730469 51.648438 Z M 76.269531 51.648438 " fill-opacity="1" fill-rule="nonzero"/><path fill="#726789" d="M 293.546875 258.355469 C 292.074219 259.414062 290.527344 260.367188 288.929688 261.222656 C 270.046875 271.347656 243.628906 268.28125 243.628906 268.28125 C 229.433594 268.382812 223.058594 258.625 223.058594 258.625 C 216.480469 257.554688 210.035156 260.164062 210.035156 260.164062 C 206.957031 266.484375 201.207031 268.3125 196.410156 268.613281 C 191.992188 268.894531 188.378906 267.878906 188.378906 267.878906 C 188.378906 267.878906 188.351562 267.898438 188.296875 267.9375 C 187.085938 268.863281 185.890625 269.625 184.714844 270.246094 C 184.699219 270.257812 184.6875 270.265625 184.667969 270.269531 C 169.214844 278.386719 156.613281 262.324219 156.613281 262.324219 C 155.851562 262.300781 155.121094 262.261719 154.398438 262.207031 C 152.425781 262.066406 150.589844 261.824219 148.867188 261.492188 C 136.058594 259.046875 126.660156 248.03125 125.820312 235.03125 C 124.613281 216.234375 127.507812 202.28125 132.269531 191.9375 C 144.238281 165.914062 168.019531 162.734375 168.019531 162.734375 C 168.019531 162.734375 177.035156 164.449219 185.566406 164.699219 C 188.992188 164.808594 192.34375 164.675781 195 164.101562 C 195.84375 163.917969 196.773438 163.753906 197.757812 163.617188 C 204.921875 162.597656 215.121094 162.683594 220.042969 162.804688 C 221.832031 162.847656 222.921875 162.890625 222.921875 162.890625 C 225.726562 163.15625 228.433594 163.503906 231.046875 163.925781 C 240.648438 165.457031 248.957031 167.996094 256.152344 171.257812 C 259.171875 172.621094 261.992188 174.109375 264.628906 175.714844 C 272.476562 180.460938 278.699219 186.148438 283.628906 192.230469 C 285.453125 194.476562 287.09375 196.773438 288.578125 199.101562 C 290.808594 202.59375 292.679688 206.140625 294.246094 209.65625 C 299.351562 221.082031 301.269531 232.144531 301.972656 239.640625 C 302.652344 246.925781 299.484375 254.082031 293.546875 258.355469 Z M 293.546875 258.355469 " fill-opacity="1" fill-rule="nonzero"/><path fill="#ffffff" d="M 288.929688 261.222656 C 270.046875 271.347656 243.628906 268.28125 243.628906 268.28125 C 229.433594 268.382812 223.058594 258.625 223.058594 258.625 C 216.480469 257.554688 210.035156 260.164062 210.035156 260.164062 C 204.128906 272.292969 188.378906 267.878906 188.378906 267.878906 C 171.28125 281.019531 156.613281 262.324219 156.613281 262.324219 C 155.851562 262.300781 155.121094 262.261719 154.398438 262.207031 L 154.714844 259.339844 C 154.714844 259.339844 164.25 263.796875 171.945312 257.117188 C 183.1875 247.363281 162.28125 234.59375 183.222656 226.746094 C 204.164062 218.90625 209.976562 207.246094 208.289062 196.078125 C 206.78125 186.089844 237.386719 192.65625 240.503906 204.425781 C 243.628906 216.191406 233.636719 221.222656 230.71875 224.128906 C 227.792969 227.035156 216.898438 235.738281 220.09375 252.210938 C 220.09375 252.210938 230.238281 227.253906 258.226562 230.46875 C 279.273438 232.882812 287.792969 248.953125 288.929688 261.222656 Z M 288.929688 261.222656 " fill-opacity="1" fill-rule="nonzero"/><path fill="#ffffff" d="M 140.703125 250.371094 C 140.703125 250.371094 146.753906 253.785156 151.480469 251.613281 C 151.480469 251.613281 143.976562 233.796875 162.910156 223.21875 C 162.910156 223.21875 174.109375 220.109375 176.324219 213.675781 C 178.539062 207.238281 177.082031 186.859375 164.09375 184.175781 C 151.105469 181.496094 135.808594 234.339844 140.703125 250.371094 Z M 140.703125 250.371094 " fill-opacity="1" fill-rule="nonzero"/><path fill="#504563" d="M 197.757812 163.617188 C 197.59375 163.824219 197.429688 164.023438 197.265625 164.21875 C 196.953125 164.636719 196.617188 165.042969 196.289062 165.464844 C 194.980469 167.128906 193.734375 168.863281 192.550781 170.667969 C 191.925781 171.570312 191.402344 172.507812 190.796875 173.453125 L 189.980469 174.90625 C 189.675781 175.386719 189.4375 175.894531 189.167969 176.402344 C 188.039062 178.421875 187.167969 180.582031 186.023438 182.945312 L 186.011719 182.972656 C 185.910156 183.195312 185.640625 183.285156 185.421875 183.175781 C 185.320312 183.128906 185.246094 183.046875 185.207031 182.945312 C 184.21875 180.519531 183.65625 177.867188 183.660156 175.207031 C 183.578125 173.855469 183.753906 172.546875 183.875 171.195312 C 184.105469 169.886719 184.320312 168.542969 184.726562 167.257812 C 184.96875 166.394531 185.246094 165.539062 185.566406 164.699219 C 188.992188 164.808594 192.34375 164.675781 195 164.101562 C 195.84375 163.917969 196.773438 163.753906 197.757812 163.617188 Z M 197.757812 163.617188 " fill-opacity="1" fill-rule="nonzero"/><path fill="#504563" d="M 231.046875 163.925781 C 230.769531 164.292969 230.46875 164.648438 230.1875 165.019531 C 228.878906 166.683594 227.632812 168.417969 226.445312 170.226562 C 225.820312 171.125 225.300781 172.070312 224.691406 173.011719 L 223.871094 174.460938 C 223.570312 174.949219 223.328125 175.449219 223.0625 175.957031 C 221.9375 177.976562 221.058594 180.144531 219.917969 182.5 L 219.90625 182.535156 C 219.800781 182.753906 219.539062 182.839844 219.316406 182.734375 C 219.21875 182.691406 219.144531 182.601562 219.105469 182.5 C 218.117188 180.074219 217.550781 177.421875 217.558594 174.761719 C 217.476562 173.417969 217.652344 172.101562 217.769531 170.75 C 218.003906 169.441406 218.214844 168.097656 218.617188 166.820312 C 219.003906 165.457031 219.476562 164.113281 220.042969 162.804688 C 221.832031 162.847656 222.921875 162.890625 222.921875 162.890625 C 225.726562 163.15625 228.433594 163.503906 231.046875 163.925781 Z M 231.046875 163.925781 " fill-opacity="1" fill-rule="nonzero"/><path fill="#504563" d="M 264.628906 175.714844 C 263.765625 176.644531 262.929688 177.609375 262.109375 178.605469 C 261.390625 179.421875 260.769531 180.304688 260.0625 181.175781 L 259.089844 182.535156 C 258.734375 182.976562 258.441406 183.453125 258.121094 183.929688 C 256.78125 185.8125 255.671875 187.863281 254.28125 190.09375 L 254.261719 190.117188 C 254.136719 190.324219 253.859375 190.386719 253.652344 190.253906 C 253.558594 190.191406 253.492188 190.105469 253.464844 189.996094 C 252.75 187.484375 252.480469 184.78125 252.777344 182.140625 C 252.84375 180.789062 253.164062 179.503906 253.429688 178.171875 C 253.804688 176.902344 254.167969 175.582031 254.707031 174.355469 C 255.132812 173.296875 255.613281 172.265625 256.152344 171.257812 C 259.171875 172.621094 261.992188 174.109375 264.628906 175.714844 Z M 264.628906 175.714844 " fill-opacity="1" fill-rule="nonzero"/><path fill="#504563" d="M 288.578125 199.101562 C 288.527344 199.152344 288.476562 199.207031 288.425781 199.257812 L 287.324219 200.511719 C 286.929688 200.917969 286.585938 201.359375 286.222656 201.804688 C 284.699219 203.542969 283.390625 205.472656 281.78125 207.550781 L 281.761719 207.574219 C 281.613281 207.761719 281.335938 207.800781 281.140625 207.648438 C 281.054688 207.582031 280.996094 207.480469 280.980469 207.378906 C 280.523438 204.796875 280.527344 202.082031 281.085938 199.484375 C 281.292969 198.152344 281.738281 196.898438 282.136719 195.605469 C 282.589844 194.476562 283.046875 193.3125 283.628906 192.230469 C 285.453125 194.476562 287.09375 196.773438 288.578125 199.101562 Z M 288.578125 199.101562 " fill-opacity="1" fill-rule="nonzero"/><path fill="#504563" d="M 152.433594 254.476562 C 152.433594 254.476562 158.394531 254.203125 166.164062 249.429688 C 166.71875 249.089844 166.460938 248.230469 165.808594 248.257812 C 162.074219 248.417969 154.78125 248.476562 150.542969 246.832031 C 150.542969 246.832031 150.664062 250.566406 152.433594 254.476562 Z M 152.433594 254.476562 " fill-opacity="1" fill-rule="nonzero"/><path fill="#504563" d="M 154.320312 234.453125 C 154.320312 234.453125 159.6875 237.058594 168.792969 236.578125 C 169.445312 236.542969 169.632812 235.667969 169.046875 235.378906 C 165.6875 233.734375 159.253906 230.304688 156.316406 226.835938 C 156.316406 226.835938 154.636719 230.175781 154.320312 234.453125 Z M 154.320312 234.453125 " fill-opacity="1" fill-rule="nonzero"/><path fill="#000072" d="M 188.378906 267.878906 C 188.378906 267.878906 188.351562 267.898438 188.296875 267.9375 C 187.964844 268.148438 186.644531 269.007812 184.714844 270.246094 C 184.699219 270.257812 184.6875 270.265625 184.667969 270.269531 C 169.214844 278.386719 156.613281 262.324219 156.613281 262.324219 C 155.851562 262.300781 155.121094 262.261719 154.398438 262.207031 C 152.425781 262.066406 150.589844 261.824219 148.867188 261.492188 C 136.058594 259.046875 126.660156 248.03125 125.820312 235.03125 C 124.613281 216.234375 127.507812 202.28125 132.269531 191.9375 L 163.320312 171.257812 C 163.320312 171.257812 178.589844 192.523438 173.789062 217.648438 C 173.789062 217.648438 152.921875 219.34375 150.335938 239.523438 C 147.746094 259.703125 169.257812 273 180.304688 262.324219 C 191.164062 251.824219 181.820312 239.90625 181.519531 239.53125 C 181.980469 239.679688 201.535156 246.414062 188.378906 267.878906 Z M 188.378906 267.878906 " fill-opacity="0.3" fill-rule="nonzero"/><path fill="#000072" d="M 223.058594 258.625 C 216.480469 257.554688 210.035156 260.164062 210.035156 260.164062 C 206.957031 266.484375 201.207031 268.3125 196.410156 268.613281 C 196.410156 268.613281 214.820312 254.953125 194.34375 240.5 L 188.824219 244.007812 C 188.824219 244.007812 185.351562 240.410156 181.519531 239.53125 C 181.519531 239.53125 205.121094 233.453125 208.25 195.089844 C 208.25 195.089844 213.953125 200.546875 215.28125 210.195312 C 216.367188 218.085938 223.382812 223.890625 231.304688 222.953125 C 231.609375 222.917969 231.917969 222.875 232.234375 222.828125 C 232.234375 222.828125 210.84375 240.125 223.058594 258.625 Z M 223.058594 258.625 " fill-opacity="0.3" fill-rule="nonzero"/><path fill="#000072" d="M 293.546875 258.355469 C 292.074219 259.414062 290.527344 260.367188 288.929688 261.222656 C 270.046875 271.347656 243.628906 268.28125 243.628906 268.28125 C 229.433594 268.382812 223.058594 258.625 223.058594 258.625 C 223.058594 258.625 211.128906 241.925781 230.71875 224.128906 C 230.71875 224.128906 226.949219 246.292969 250.214844 246.832031 C 262.011719 247.101562 300.960938 243.382812 294.246094 209.65625 C 299.351562 221.082031 301.269531 232.144531 301.972656 239.640625 C 302.652344 246.925781 299.484375 254.082031 293.546875 258.355469 Z M 293.546875 258.355469 " fill-opacity="0.3" fill-rule="nonzero"/><path fill="#ffffff" d="M 132.894531 197.570312 C 144.867188 171.546875 168.644531 168.367188 168.644531 168.367188 C 168.644531 168.367188 177.660156 170.082031 186.191406 170.332031 C 189.617188 170.4375 192.96875 170.308594 195.625 169.730469 C 196.472656 169.550781 197.398438 169.386719 198.382812 169.25 C 205.550781 168.230469 215.746094 168.316406 220.671875 168.4375 C 222.457031 168.480469 223.546875 168.523438 223.546875 168.523438 C 226.351562 168.785156 229.058594 169.136719 231.671875 169.554688 C 241.273438 171.089844 249.582031 173.628906 256.78125 176.890625 C 259.800781 178.253906 262.617188 179.742188 265.253906 181.34375 C 273.105469 186.09375 279.324219 191.78125 284.253906 197.863281 C 286.078125 200.109375 287.71875 202.40625 289.203125 204.734375 C 291.433594 208.226562 293.308594 211.773438 294.875 215.289062 C 298.964844 224.449219 301.007812 233.367188 302.015625 240.40625 C 302.003906 240.152344 301.996094 239.898438 301.972656 239.640625 C 301.269531 232.144531 299.351562 221.082031 294.246094 209.65625 C 292.679688 206.140625 290.808594 202.59375 288.578125 199.101562 C 287.09375 196.773438 285.453125 194.476562 283.628906 192.230469 C 278.699219 186.148438 272.476562 180.460938 264.628906 175.714844 C 261.992188 174.109375 259.171875 172.621094 256.152344 171.257812 C 248.957031 167.996094 240.648438 165.457031 231.046875 163.925781 C 228.433594 163.503906 225.726562 163.15625 222.921875 162.890625 C 222.921875 162.890625 221.832031 162.847656 220.042969 162.804688 C 215.121094 162.683594 204.921875 162.597656 197.757812 163.617188 C 196.773438 163.753906 195.84375 163.917969 195 164.101562 C 192.34375 164.675781 188.992188 164.808594 185.566406 164.699219 C 177.035156 164.449219 168.019531 162.734375 168.019531 162.734375 C 168.019531 162.734375 144.238281 165.914062 132.269531 191.9375 C 127.507812 202.28125 124.613281 216.234375 125.820312 235.03125 C 125.910156 236.386719 126.097656 237.722656 126.363281 239.027344 C 125.421875 221.0625 128.273438 207.605469 132.894531 197.570312 Z M 132.894531 197.570312 " fill-opacity="0.5" fill-rule="nonzero"/><path fill="#000072" d="M 175.820312 274.3125 C 165.648438 274.3125 157.851562 266.386719 155.773438 264.046875 C 153.265625 263.933594 150.835938 263.652344 148.539062 263.214844 C 135.03125 260.636719 124.96875 249.089844 124.074219 235.140625 C 121.832031 200.300781 133.761719 182.003906 144.164062 172.789062 C 155.511719 162.734375 167.289062 161.0625 167.785156 160.996094 C 167.972656 160.96875 168.164062 160.976562 168.347656 161.011719 C 168.519531 161.042969 185.824219 164.292969 194.628906 162.386719 C 204.003906 160.347656 222.226562 161.105469 222.996094 161.140625 C 223.027344 161.140625 223.058594 161.144531 223.089844 161.144531 C 289.863281 167.460938 301.722656 218.03125 303.722656 239.480469 C 304.460938 247.414062 300.953125 255.191406 294.570312 259.777344 C 275.78125 273.28125 245.90625 270.296875 243.535156 270.035156 C 243.492188 270.035156 243.449219 270.035156 243.40625 270.035156 C 230.628906 270.035156 223.875 262.585938 222.074219 260.257812 C 217.414062 259.695312 212.871094 261.035156 211.285156 261.574219 C 206.167969 271.085938 194.839844 271.207031 188.757812 269.785156 C 184.210938 273.082031 179.832031 274.3125 175.820312 274.3125 Z M 167.996094 164.511719 C 166.261719 164.816406 156.015625 166.910156 146.347656 175.539062 C 132.371094 188.019531 125.878906 208.550781 127.574219 234.914062 C 128.371094 247.269531 137.261719 257.492188 149.199219 259.769531 C 151.554688 260.21875 154.066406 260.488281 156.664062 260.574219 C 157.183594 260.589844 157.671875 260.835938 157.988281 261.246094 C 158.546875 261.949219 171.816406 278.398438 187.308594 266.488281 C 187.746094 266.152344 188.320312 266.042969 188.851562 266.191406 C 189.4375 266.351562 203.269531 270.042969 208.457031 259.394531 C 208.644531 259.003906 208.972656 258.699219 209.375 258.539062 C 209.65625 258.421875 216.355469 255.753906 223.339844 256.894531 C 223.824219 256.972656 224.253906 257.253906 224.527344 257.667969 C 224.765625 258.027344 230.554688 266.527344 243.410156 266.527344 C 243.484375 266.527344 243.554688 266.523438 243.628906 266.527344 C 243.695312 266.527344 243.765625 266.53125 243.832031 266.539062 C 244.136719 266.574219 274.472656 269.898438 292.519531 256.929688 C 297.898438 253.066406 300.851562 246.503906 300.226562 239.804688 C 298.308594 219.230469 286.925781 170.726562 222.804688 164.640625 C 221.796875 164.597656 204.09375 163.917969 195.375 165.8125 C 186.4375 167.753906 170.484375 164.96875 167.996094 164.511719 Z M 167.996094 164.511719 " fill-opacity="1" fill-rule="nonzero"/><path fill="#000072" d="M 155.210938 263.386719 C 145.421875 249.78125 145.917969 233.292969 160.402344 223.316406 C 164.40625 220.429688 168.898438 218.269531 173.789062 217.648438 C 172.8125 218.414062 171.8125 219.082031 170.796875 219.703125 C 167.902344 221.664062 164.800781 223.351562 162.074219 225.535156 C 149.621094 235.191406 149.84375 248.769531 158.007812 261.265625 C 159.347656 263.128906 156.660156 265.1875 155.210938 263.386719 Z M 155.210938 263.386719 " fill-opacity="1" fill-rule="nonzero"/><path fill="#000072" d="M 187.234375 266.546875 C 190.933594 263 192.429688 257.460938 191.089844 252.527344 C 191.03125 252.050781 190.550781 250.867188 190.40625 250.390625 C 190.273438 249.910156 190.019531 249.460938 189.804688 249.003906 C 189.210938 247.597656 188.269531 246.238281 187.480469 244.949219 C 186.964844 244.109375 187.226562 243.015625 188.066406 242.503906 C 188.972656 242.015625 189.957031 241.394531 190.839844 240.800781 C 193.511719 239.023438 195.964844 236.910156 198.195312 234.609375 C 201.15625 231.523438 203.628906 227.988281 205.457031 224.125 C 208.789062 217.285156 209.285156 209.4375 208.824219 201.929688 C 208.773438 200.816406 208.652344 199.710938 208.640625 198.566406 C 208.636719 198.511719 208.726562 198.492188 208.746094 198.546875 C 212.417969 207.042969 211.90625 216.921875 208.378906 225.417969 C 205.230469 232.953125 199.617188 239.308594 192.828125 243.789062 C 191.8125 244.460938 190.863281 245.019531 189.738281 245.585938 C 189.738281 245.585938 190.402344 243.011719 190.402344 243.011719 C 191.011719 243.988281 191.640625 244.957031 192.226562 245.953125 C 192.664062 246.886719 193.367188 248.171875 193.691406 249.144531 C 194.542969 251.34375 195.046875 253.777344 195.097656 256.132812 C 195.140625 260.839844 193.21875 265.511719 189.90625 268.847656 C 188.222656 270.929688 185.3125 268.460938 187.234375 266.546875 Z M 187.234375 266.546875 " fill-opacity="1" fill-rule="nonzero"/><path fill="#000072" d="M 187.652344 245.183594 C 185.914062 243.023438 183.742188 241.242188 181.488281 239.589844 C 181.429688 239.550781 181.457031 239.449219 181.53125 239.449219 C 183.902344 239.359375 186.226562 240.15625 188.261719 241.34375 C 189.011719 241.796875 189.613281 242.207031 190.277344 242.851562 C 191.945312 244.640625 189.238281 247.046875 187.652344 245.183594 Z M 187.652344 245.183594 " fill-opacity="1" fill-rule="nonzero"/><path fill="#000072" d="M 210.035156 261.917969 C 209.914062 261.917969 209.789062 261.902344 209.664062 261.875 C 208.71875 261.671875 208.113281 260.738281 208.320312 259.792969 C 211.710938 244.0625 198.21875 238.972656 197.640625 238.765625 C 196.734375 238.433594 196.257812 237.429688 196.585938 236.523438 C 196.914062 235.613281 197.914062 235.136719 198.828125 235.464844 C 198.996094 235.523438 215.800781 241.753906 211.753906 260.53125 C 211.574219 261.355469 210.847656 261.917969 210.035156 261.917969 Z M 210.035156 261.917969 " fill-opacity="1" fill-rule="nonzero"/><path fill="#000072" d="M 221.664062 259.695312 C 215.085938 250.238281 217.078125 237.988281 224.28125 229.519531 C 226.464844 226.792969 229.0625 224.417969 232.117188 222.75 C 232.210938 222.695312 232.324219 222.820312 232.253906 222.90625 C 230.164062 225.667969 227.941406 228.140625 226.050781 230.851562 C 220.554688 238.488281 218.929688 248.382812 223.871094 256.660156 C 224.082031 257.015625 224.308594 257.371094 224.5 257.628906 C 225.796875 259.519531 223.078125 261.511719 221.664062 259.695312 Z M 221.664062 259.695312 " fill-opacity="1" fill-rule="nonzero"/><path fill="#000072" d="M 176.507812 274.066406 C 173.4375 272.371094 170.847656 269.6875 169.585938 266.398438 C 169.472656 266.109375 169.824219 265.832031 170.078125 266.003906 C 172.851562 267.742188 175.265625 269.484375 178.113281 270.949219 C 180.078125 272.074219 178.566406 275.007812 176.507812 274.066406 Z M 176.507812 274.066406 " fill-opacity="1" fill-rule="nonzero"/><path fill="#000072" d="M 192.003906 264.074219 C 186.816406 263.289062 181.410156 259.792969 178.503906 255.457031 C 178.429688 255.351562 178.550781 255.203125 178.667969 255.257812 C 179.296875 255.511719 179.882812 255.808594 180.460938 256.101562 C 184.242188 258.015625 188.089844 259.941406 192.304688 260.578125 C 194.640625 260.832031 194.34375 264.234375 192.003906 264.074219 Z M 192.003906 264.074219 " fill-opacity="1" fill-rule="nonzero"/><path fill="#000072" d="M 208.496094 243.878906 C 206.992188 248.980469 201.085938 250.832031 196.398438 249.175781 C 196.261719 249.136719 196.277344 248.921875 196.417969 248.902344 C 197.464844 248.675781 198.492188 248.484375 199.488281 248.164062 C 202.039062 247.402344 204.375 245.691406 205.066406 243.121094 C 205.625 240.878906 208.941406 241.609375 208.496094 243.878906 Z M 208.496094 243.878906 " fill-opacity="1" fill-rule="nonzero"/><path fill="#000072" d="M 211.769531 257.945312 C 208.382812 260.941406 202.898438 262.535156 198.867188 259.933594 C 198.621094 259.765625 198.382812 259.589844 198.152344 259.414062 C 198.0625 259.34375 198.046875 259.214844 198.117188 259.125 C 198.167969 259.058594 198.246094 259.035156 198.324219 259.046875 C 199.464844 259.148438 200.496094 259.292969 201.523438 259.152344 C 204.539062 258.910156 207.214844 257.316406 209.425781 255.335938 C 211.179688 253.882812 213.40625 256.359375 211.769531 257.945312 Z M 211.769531 257.945312 " fill-opacity="1" fill-rule="nonzero"/><path fill="#ffffff" d="M 284.867188 273.378906 C 300.144531 268.265625 302.199219 247.5625 288.265625 239.480469 C 280.175781 234.785156 267.765625 232.140625 249.144531 237.34375 C 247.273438 237.867188 245.519531 238.816406 244.210938 240.25 C 242.488281 242.144531 241.191406 245.140625 243.75 249.214844 C 243.75 249.214844 234.914062 255.523438 242.875 263.214844 C 242.875 263.214844 238.078125 277.777344 269.078125 276.097656 C 275.609375 275.742188 280.769531 274.753906 284.867188 273.378906 Z M 284.867188 273.378906 " fill-opacity="1" fill-rule="nonzero"/><path fill="#ffb3d2" d="M 270.460938 245.871094 C 269.253906 246.003906 268.15625 246.382812 267.171875 246.917969 C 260.039062 250.78125 260.925781 261.574219 268.589844 264.230469 C 269.652344 264.597656 270.792969 264.789062 272.007812 264.726562 C 279.292969 264.339844 273.625 258.972656 273.308594 255.128906 C 272.996094 251.285156 277.707031 245.070312 270.460938 245.871094 Z M 270.460938 245.871094 " fill-opacity="1" fill-rule="nonzero"/><path fill="#ffb3d2" d="M 264.328125 266.164062 C 264.328125 266.457031 264.300781 266.742188 264.242188 267.027344 C 264.1875 267.3125 264.101562 267.589844 263.992188 267.855469 C 263.878906 268.125 263.742188 268.378906 263.582031 268.621094 C 263.421875 268.863281 263.238281 269.085938 263.03125 269.292969 C 262.824219 269.496094 262.601562 269.679688 262.359375 269.839844 C 262.117188 270.003906 261.863281 270.136719 261.59375 270.25 C 261.328125 270.359375 261.050781 270.445312 260.765625 270.5 C 260.480469 270.558594 260.191406 270.585938 259.902344 270.585938 C 259.609375 270.585938 259.324219 270.558594 259.039062 270.5 C 258.753906 270.445312 258.476562 270.359375 258.207031 270.25 C 257.9375 270.136719 257.683594 270.003906 257.441406 269.839844 C 257.199219 269.679688 256.976562 269.496094 256.773438 269.292969 C 256.566406 269.085938 256.382812 268.863281 256.222656 268.621094 C 256.058594 268.378906 255.921875 268.125 255.8125 267.855469 C 255.699219 267.589844 255.617188 267.3125 255.558594 267.027344 C 255.503906 266.742188 255.476562 266.457031 255.476562 266.164062 C 255.476562 265.875 255.503906 265.585938 255.558594 265.300781 C 255.617188 265.019531 255.699219 264.742188 255.8125 264.472656 C 255.921875 264.203125 256.058594 263.949219 256.222656 263.707031 C 256.382812 263.46875 256.566406 263.242188 256.773438 263.039062 C 256.976562 262.832031 257.199219 262.648438 257.441406 262.488281 C 257.683594 262.328125 257.9375 262.191406 258.207031 262.082031 C 258.476562 261.96875 258.753906 261.886719 259.039062 261.828125 C 259.324219 261.773438 259.609375 261.742188 259.902344 261.742188 C 260.191406 261.742188 260.480469 261.773438 260.765625 261.828125 C 261.050781 261.886719 261.328125 261.96875 261.59375 262.082031 C 261.863281 262.191406 262.117188 262.328125 262.359375 262.488281 C 262.601562 262.648438 262.824219 262.832031 263.03125 263.039062 C 263.238281 263.242188 263.421875 263.46875 263.582031 263.707031 C 263.742188 263.949219 263.878906 264.203125 263.992188 264.472656 C 264.101562 264.742188 264.1875 265.019531 264.242188 265.300781 C 264.300781 265.585938 264.328125 265.875 264.328125 266.164062 Z M 264.328125 266.164062 " fill-opacity="1" fill-rule="nonzero"/><path fill="#ffb3d2" d="M 258.328125 256.71875 C 258.328125 257.007812 258.300781 257.296875 258.242188 257.582031 C 258.1875 257.867188 258.101562 258.144531 257.992188 258.410156 C 257.878906 258.679688 257.742188 258.933594 257.582031 259.175781 C 257.421875 259.417969 257.238281 259.640625 257.03125 259.84375 C 256.824219 260.050781 256.601562 260.234375 256.359375 260.394531 C 256.117188 260.558594 255.863281 260.691406 255.59375 260.804688 C 255.328125 260.914062 255.050781 261 254.765625 261.054688 C 254.480469 261.113281 254.191406 261.140625 253.902344 261.140625 C 253.609375 261.140625 253.324219 261.113281 253.039062 261.054688 C 252.753906 261 252.476562 260.914062 252.207031 260.804688 C 251.9375 260.691406 251.683594 260.558594 251.441406 260.394531 C 251.199219 260.234375 250.976562 260.050781 250.773438 259.84375 C 250.566406 259.640625 250.382812 259.417969 250.222656 259.175781 C 250.058594 258.933594 249.921875 258.679688 249.8125 258.410156 C 249.699219 258.144531 249.617188 257.867188 249.558594 257.582031 C 249.503906 257.296875 249.476562 257.007812 249.476562 256.71875 C 249.476562 256.429688 249.503906 256.140625 249.558594 255.855469 C 249.617188 255.570312 249.699219 255.296875 249.8125 255.027344 C 249.921875 254.757812 250.058594 254.503906 250.222656 254.261719 C 250.382812 254.019531 250.566406 253.796875 250.773438 253.59375 C 250.976562 253.386719 251.199219 253.203125 251.441406 253.042969 C 251.683594 252.882812 251.9375 252.746094 252.207031 252.632812 C 252.476562 252.523438 252.753906 252.441406 253.039062 252.382812 C 253.324219 252.328125 253.609375 252.296875 253.902344 252.296875 C 254.191406 252.296875 254.480469 252.328125 254.765625 252.382812 C 255.050781 252.441406 255.328125 252.523438 255.59375 252.632812 C 255.863281 252.746094 256.117188 252.882812 256.359375 253.042969 C 256.601562 253.203125 256.824219 253.386719 257.03125 253.59375 C 257.238281 253.796875 257.421875 254.019531 257.582031 254.261719 C 257.742188 254.503906 257.878906 254.757812 257.992188 255.027344 C 258.101562 255.296875 258.1875 255.570312 258.242188 255.855469 C 258.300781 256.140625 258.328125 256.429688 258.328125 256.71875 Z M 258.328125 256.71875 " fill-opacity="1" fill-rule="nonzero"/><path fill="#ffb3d2" d="M 262.707031 246.421875 C 262.707031 246.710938 262.679688 247 262.621094 247.285156 C 262.566406 247.570312 262.480469 247.84375 262.371094 248.113281 C 262.257812 248.382812 262.121094 248.636719 261.960938 248.878906 C 261.800781 249.117188 261.617188 249.34375 261.410156 249.546875 C 261.203125 249.753906 260.980469 249.9375 260.738281 250.097656 C 260.496094 250.257812 260.242188 250.394531 259.972656 250.507812 C 259.707031 250.617188 259.429688 250.699219 259.144531 250.757812 C 258.859375 250.8125 258.570312 250.84375 258.28125 250.84375 C 257.988281 250.84375 257.703125 250.8125 257.417969 250.757812 C 257.132812 250.699219 256.855469 250.617188 256.585938 250.507812 C 256.316406 250.394531 256.0625 250.257812 255.820312 250.097656 C 255.578125 249.9375 255.355469 249.753906 255.148438 249.546875 C 254.945312 249.34375 254.761719 249.117188 254.601562 248.878906 C 254.4375 248.636719 254.300781 248.382812 254.191406 248.113281 C 254.078125 247.84375 253.996094 247.570312 253.9375 247.285156 C 253.882812 247 253.855469 246.710938 253.855469 246.421875 C 253.855469 246.132812 253.882812 245.84375 253.9375 245.558594 C 253.996094 245.273438 254.078125 244.996094 254.191406 244.730469 C 254.300781 244.460938 254.4375 244.207031 254.601562 243.964844 C 254.761719 243.722656 254.945312 243.5 255.148438 243.292969 C 255.355469 243.089844 255.578125 242.90625 255.820312 242.746094 C 256.0625 242.582031 256.316406 242.449219 256.585938 242.335938 C 256.855469 242.226562 257.132812 242.140625 257.417969 242.085938 C 257.703125 242.027344 257.988281 242 258.28125 242 C 258.570312 242 258.859375 242.027344 259.144531 242.085938 C 259.429688 242.140625 259.707031 242.226562 259.972656 242.335938 C 260.242188 242.449219 260.496094 242.582031 260.738281 242.746094 C 260.980469 242.90625 261.203125 243.089844 261.410156 243.292969 C 261.617188 243.5 261.800781 243.722656 261.960938 243.964844 C 262.121094 244.207031 262.257812 244.460938 262.371094 244.730469 C 262.480469 244.996094 262.566406 245.273438 262.621094 245.558594 C 262.679688 245.84375 262.707031 246.132812 262.707031 246.421875 Z M 262.707031 246.421875 " fill-opacity="1" fill-rule="nonzero"/><path fill="#000072" d="M 292.53125 242.832031 C 293.179688 250.832031 288.777344 259.128906 279.855469 262.117188 C 275.757812 263.488281 270.597656 264.480469 264.066406 264.835938 C 250.582031 265.5625 243.875 263.222656 240.597656 260.34375 C 241.117188 261.269531 241.859375 262.230469 242.875 263.214844 C 242.875 263.214844 238.078125 277.773438 269.078125 276.097656 C 275.609375 275.746094 280.769531 274.753906 284.867188 273.378906 C 298.339844 268.871094 301.519531 252.242188 292.53125 242.832031 Z M 292.53125 242.832031 " fill-opacity="0.3" fill-rule="nonzero"/><path fill="#000072" d="M 264.347656 278.367188 C 253.394531 278.367188 246.09375 276.074219 242.605469 271.523438 C 240.382812 268.621094 240.339844 265.59375 240.558594 263.898438 C 238.277344 261.382812 237.226562 258.707031 237.433594 255.921875 C 237.675781 252.660156 239.648438 250.136719 241.0625 248.726562 C 239.464844 245.167969 239.996094 241.695312 242.625 238.808594 C 244.117188 237.171875 246.171875 235.953125 248.566406 235.28125 C 265.015625 230.6875 278.734375 231.476562 289.339844 237.628906 C 296.539062 241.804688 300.488281 249.53125 299.648438 257.796875 C 298.808594 266.027344 293.40625 272.777344 285.546875 275.40625 C 280.960938 276.945312 275.460938 277.894531 269.195312 278.230469 C 267.507812 278.324219 265.890625 278.367188 264.347656 278.367188 Z M 268.109375 236.617188 C 262.507812 236.617188 256.367188 237.542969 249.722656 239.402344 C 248.101562 239.855469 246.742188 240.648438 245.792969 241.691406 C 244.082031 243.570312 244.007812 245.597656 245.5625 248.078125 C 246.164062 249.039062 245.914062 250.296875 244.992188 250.957031 C 244.96875 250.972656 241.914062 253.226562 241.703125 256.261719 C 241.578125 258.03125 242.476562 259.851562 244.367188 261.679688 C 244.957031 262.25 245.167969 263.105469 244.910156 263.886719 C 244.882812 263.96875 244.136719 266.542969 246.054688 268.988281 C 248.191406 271.707031 253.902344 274.777344 268.960938 273.960938 C 274.84375 273.644531 279.964844 272.765625 284.1875 271.355469 C 290.429688 269.265625 294.71875 263.902344 295.386719 257.363281 C 296.054688 250.796875 292.914062 244.652344 287.1875 241.332031 C 281.78125 238.1875 275.398438 236.617188 268.109375 236.617188 Z M 268.109375 236.617188 " fill-opacity="1" fill-rule="nonzero"/><path fill="#726789" d="M 73.914062 93.542969 L 99.128906 133.101562 C 95.3125 133.699219 91.804688 134.570312 88.597656 135.632812 C 68.019531 142.433594 59.554688 156.953125 59.554688 156.953125 C 55.714844 143.167969 56.101562 126.242188 56.101562 126.242188 C 57.738281 97.992188 65.644531 93.1875 70.355469 92.898438 C 72.449219 92.777344 73.914062 93.542969 73.914062 93.542969 Z M 73.914062 93.542969 " fill-opacity="1" fill-rule="nonzero"/><path fill="#000072" d="M 61.644531 134.507812 C 62.128906 138.960938 66.996094 141.355469 70.894531 139.132812 C 79.628906 134.140625 88.519531 135.59375 88.519531 135.59375 L 88.601562 135.632812 C 68.019531 142.433594 59.554688 156.953125 59.554688 156.953125 C 55.714844 143.167969 56.101562 126.242188 56.101562 126.242188 C 57.738281 97.992188 65.644531 93.1875 70.355469 92.898438 C 60.140625 102.652344 60.308594 122.183594 61.644531 134.507812 Z M 61.644531 134.507812 " fill-opacity="0.3" fill-rule="nonzero"/><path fill="#000072" d="M 59.550781 158.707031 C 59.476562 158.707031 59.398438 158.703125 59.324219 158.691406 C 58.625 158.601562 58.046875 158.101562 57.859375 157.425781 C 53.996094 143.550781 54.332031 126.902344 54.347656 126.199219 C 55.425781 107.53125 59.347656 96.1875 66.007812 92.425781 C 70.554688 89.855469 74.558594 91.902344 74.726562 91.992188 C 75 92.132812 75.226562 92.34375 75.390625 92.601562 L 100.605469 132.164062 C 100.925781 132.664062 100.96875 133.285156 100.726562 133.828125 C 100.480469 134.367188 99.980469 134.746094 99.398438 134.835938 C 72.382812 139.0625 61.175781 157.652344 61.066406 157.839844 C 60.75 158.378906 60.167969 158.707031 59.550781 158.707031 Z M 70.835938 94.640625 C 69.933594 94.640625 68.835938 94.839844 67.667969 95.515625 C 64.566406 97.316406 59.164062 103.710938 57.855469 126.339844 C 57.855469 126.4375 57.578125 140.246094 60.332031 152.800781 C 64.789062 147.132812 75.972656 135.773438 96.234375 131.832031 L 72.726562 94.949219 C 72.335938 94.8125 71.667969 94.640625 70.835938 94.640625 Z M 70.835938 94.640625 " fill-opacity="1" fill-rule="nonzero"/><path fill="#ff8dc1" d="M 126.953125 128.089844 C 128.574219 130.417969 130.15625 132.894531 131.703125 135.539062 L 88.519531 135.59375 C 88.519531 135.59375 69.644531 119.359375 69.171875 98.507812 C 69.097656 95.515625 71.777344 93.179688 74.738281 93.578125 C 75.976562 93.746094 77.402344 93.984375 78.984375 94.320312 C 78.992188 94.316406 78.992188 94.316406 78.992188 94.316406 C 90.515625 96.746094 110.417969 104.359375 126.953125 128.089844 Z M 126.953125 128.089844 " fill-opacity="1" fill-rule="nonzero"/><path fill="#000072" d="M 78.984375 94.320312 C 78.699219 94.363281 71.253906 95.722656 74.644531 104.839844 C 76.386719 109.519531 77.457031 112.070312 78.09375 113.453125 C 78.378906 114.074219 79.277344 114.019531 79.5 113.371094 L 80.503906 110.476562 C 81.035156 108.949219 82.683594 108.128906 84.21875 108.621094 C 87.152344 109.554688 92.003906 111.816406 97.078125 117.230469 C 98.089844 118.308594 99.46875 118.996094 100.945312 119.074219 C 103.636719 119.214844 108.347656 120.257812 112.269531 125.261719 C 113.070312 126.28125 114.199219 126.988281 115.460938 127.273438 C 117.96875 127.84375 122.359375 128.574219 126.953125 128.089844 C 128.574219 130.417969 130.15625 132.894531 131.703125 135.539062 L 88.519531 135.59375 C 88.519531 135.59375 69.644531 119.359375 69.171875 98.507812 C 69.097656 95.515625 71.777344 93.179688 74.738281 93.578125 C 75.976562 93.746094 77.402344 93.980469 78.984375 94.320312 Z M 78.984375 94.320312 " fill-opacity="0.3" fill-rule="nonzero"/><path fill="#000072" d="M 88.515625 137.34375 C 88.097656 137.34375 87.6875 137.195312 87.371094 136.921875 C 86.578125 136.238281 67.898438 119.933594 67.414062 98.550781 C 67.371094 96.625 68.175781 94.777344 69.625 93.484375 C 71.085938 92.179688 73.039062 91.582031 74.976562 91.839844 C 85.824219 93.304688 113.222656 100.410156 133.222656 134.652344 C 133.539062 135.195312 133.542969 135.863281 133.230469 136.410156 C 132.914062 136.953125 132.335938 137.289062 131.707031 137.289062 L 88.519531 137.34375 C 88.519531 137.34375 88.515625 137.34375 88.515625 137.34375 Z M 74.082031 95.289062 C 73.308594 95.289062 72.554688 95.574219 71.964844 96.097656 C 71.273438 96.714844 70.902344 97.558594 70.925781 98.46875 C 71.332031 116.464844 86.320312 131.179688 89.191406 133.835938 L 128.601562 133.785156 C 109.558594 103.148438 84.5625 96.675781 74.503906 95.316406 C 74.363281 95.296875 74.222656 95.289062 74.082031 95.289062 Z M 74.082031 95.289062 " fill-opacity="1" fill-rule="nonzero"/><path fill="#726789" d="M 80.269531 126.558594 L 84.230469 115.121094 C 84.230469 115.121094 92.769531 117.925781 95.066406 124.261719 C 95.066406 124.261719 110.726562 121.691406 110.109375 135.5625 L 88.515625 135.589844 C 88.515625 135.59375 83.160156 130.644531 80.269531 126.558594 Z M 80.269531 126.558594 " fill-opacity="1" fill-rule="nonzero"/><path fill="#000072" d="M 88.515625 137.34375 C 88.074219 137.34375 87.648438 137.179688 87.324219 136.878906 C 87.101562 136.671875 81.800781 131.757812 78.835938 127.570312 C 78.511719 127.105469 78.425781 126.519531 78.609375 125.984375 L 82.570312 114.546875 C 82.882812 113.640625 83.867188 113.15625 84.777344 113.457031 C 85.132812 113.574219 93.058594 116.242188 96.160156 122.378906 C 98.75 122.191406 104.398438 122.238281 108.210938 125.617188 C 110.824219 127.9375 112.054688 131.308594 111.863281 135.640625 C 111.820312 136.578125 111.050781 137.316406 110.113281 137.316406 L 88.519531 137.34375 C 88.519531 137.34375 88.515625 137.34375 88.515625 137.34375 Z M 82.230469 126.261719 C 84.515625 129.277344 87.945312 132.628906 89.210938 133.835938 L 108.335938 133.8125 C 108.164062 131.414062 107.34375 129.542969 105.886719 128.246094 C 102.171875 124.941406 95.414062 125.980469 95.34375 125.992188 C 94.511719 126.125 93.699219 125.648438 93.414062 124.855469 C 92 120.964844 87.664062 118.523438 85.28125 117.4375 Z M 82.230469 126.261719 " fill-opacity="1" fill-rule="nonzero"/><path fill="#726789" d="M 54.675781 174.976562 C 54.675781 174.976562 45.742188 189.21875 49.277344 210.582031 C 49.519531 212.066406 49.824219 213.574219 50.203125 215.121094 C 50.667969 217.050781 51.238281 219.039062 51.933594 221.070312 L 5.152344 217.160156 C 5.152344 217.160156 5.105469 217.125 5.019531 217.0625 C 4.65625 216.773438 3.628906 215.863281 2.925781 214.3125 C 0.992188 210.007812 1.578125 200.78125 25.851562 186.203125 C 25.847656 186.203125 40.671875 177.992188 54.675781 174.976562 Z M 54.675781 174.976562 " fill-opacity="1" fill-rule="nonzero"/><path fill="#000072" d="M 54.675781 174.976562 C 54.675781 174.976562 45.742188 189.21875 49.277344 210.582031 C 49.519531 212.066406 49.824219 213.574219 50.203125 215.121094 C 49.070312 215.175781 47.949219 214.917969 46.867188 214.285156 C 39.671875 210.082031 38.320312 200.214844 38.261719 193.792969 C 38.234375 190.914062 35.339844 188.96875 32.664062 190.042969 C 0.0195312 203.089844 5.152344 217.160156 5.152344 217.160156 C 5.152344 217.160156 5.105469 217.125 5.019531 217.0625 C 4.65625 216.773438 3.628906 215.863281 2.925781 214.3125 C 0.992188 210.007812 1.578125 200.78125 25.851562 186.203125 C 25.847656 186.203125 40.671875 177.992188 54.675781 174.976562 Z M 54.675781 174.976562 " fill-opacity="0.3" fill-rule="nonzero"/><path fill="#000072" d="M 51.933594 222.824219 C 51.882812 222.824219 51.835938 222.820312 51.785156 222.816406 L 5.003906 218.90625 C 4.699219 218.878906 4.40625 218.773438 4.15625 218.601562 C 3.996094 218.492188 0.324219 215.898438 0.484375 210.6875 C 0.726562 203.046875 8.957031 194.304688 24.945312 184.703125 C 25.613281 184.332031 40.210938 176.296875 54.304688 173.261719 C 54.992188 173.109375 55.707031 173.394531 56.113281 173.96875 C 56.515625 174.546875 56.539062 175.308594 56.164062 175.90625 C 56.046875 176.089844 44.785156 194.644531 53.59375 220.503906 C 53.785156 221.0625 53.683594 221.683594 53.316406 222.148438 C 52.984375 222.578125 52.46875 222.824219 51.933594 222.824219 Z M 5.847656 215.457031 L 49.460938 219.101562 C 43.535156 199.347656 48.410156 184.175781 51.359375 177.597656 C 38.949219 181 26.835938 187.664062 26.703125 187.738281 C 7.214844 199.441406 4.109375 207.207031 3.996094 210.792969 C 3.917969 213.328125 5.234375 214.878906 5.847656 215.457031 Z M 5.847656 215.457031 " fill-opacity="1" fill-rule="nonzero"/><path fill="#ff8dc1" d="M 60.425781 248.011719 C 63.242188 248.367188 66.171875 248.613281 69.234375 248.753906 L 49.207031 210.53125 C 49.207031 210.53125 26.046875 201.382812 7.347656 210.65625 C 4.660156 211.984375 3.835938 215.4375 5.566406 217.871094 C 6.289062 218.886719 7.164062 220.039062 8.195312 221.28125 C 8.199219 221.289062 8.199219 221.289062 8.199219 221.289062 C 15.707031 230.351562 31.707031 244.417969 60.425781 248.011719 Z M 60.425781 248.011719 " fill-opacity="1" fill-rule="nonzero"/><path fill="#000072" d="M 8.195312 221.28125 C 8.105469 221.007812 5.847656 213.792969 15.503906 212.554688 C 20.457031 211.917969 23.21875 211.679688 24.738281 211.601562 C 25.421875 211.5625 25.792969 212.382812 25.324219 212.882812 L 23.226562 215.117188 C 22.117188 216.292969 22.15625 218.132812 23.304688 219.261719 C 25.496094 221.421875 29.753906 224.664062 36.914062 226.636719 C 38.339844 227.027344 39.589844 227.925781 40.34375 229.199219 C 41.722656 231.515625 43.527344 234.90625 49.78125 236.050781 C 51.054688 236.285156 52.3125 238.199219 53.152344 239.183594 C 54.824219 241.136719 57.898438 243.945312 60.425781 248.011719 C 63.242188 248.363281 66.175781 248.613281 69.234375 248.75 L 49.210938 210.527344 C 49.210938 210.527344 26.050781 201.382812 7.347656 210.652344 C 4.664062 211.980469 3.835938 215.4375 5.566406 217.871094 C 6.289062 218.886719 7.164062 220.039062 8.195312 221.28125 Z M 8.195312 221.28125 " fill-opacity="0.3" fill-rule="nonzero"/><path fill="#000072" d="M 69.234375 250.507812 C 69.207031 250.507812 69.179688 250.507812 69.15625 250.507812 C 29.511719 248.734375 10.476562 227.804688 4.136719 218.886719 C 3.003906 217.296875 2.628906 215.292969 3.105469 213.390625 C 3.578125 211.511719 4.839844 209.941406 6.566406 209.082031 C 25.746094 199.570312 48.875 208.511719 49.851562 208.898438 C 50.242188 209.050781 50.566406 209.34375 50.761719 209.714844 L 70.789062 247.941406 C 71.078125 248.496094 71.050781 249.164062 70.714844 249.695312 C 70.390625 250.203125 69.832031 250.507812 69.234375 250.507812 Z M 26.632812 208.273438 C 20.617188 208.273438 14.109375 209.257812 8.128906 212.226562 C 7.308594 212.628906 6.738281 213.347656 6.511719 214.246094 C 6.28125 215.152344 6.460938 216.105469 6.996094 216.859375 C 12.875 225.125 30.230469 244.222656 66.238281 246.824219 L 47.964844 211.941406 C 45.640625 211.121094 36.851562 208.273438 26.632812 208.273438 Z M 26.632812 208.273438 " fill-opacity="1" fill-rule="nonzero"/><path fill="#726789" d="M 37.367188 207.433594 L 29.070312 216.25 C 29.070312 216.25 35.527344 222.5 42.207031 221.585938 C 42.207031 221.585938 47.210938 236.632812 59.21875 229.640625 L 49.207031 210.527344 C 49.207031 210.527344 42.332031 208.089844 37.367188 207.433594 Z M 37.367188 207.433594 " fill-opacity="1" fill-rule="nonzero"/><path fill="#000072" d="M 53.164062 233.25 C 51.917969 233.25 50.699219 233.03125 49.519531 232.585938 C 44.753906 230.785156 42.089844 225.808594 41.050781 223.429688 C 40.984375 223.429688 40.917969 223.429688 40.855469 223.429688 C 34.050781 223.429688 28.117188 217.769531 27.847656 217.511719 C 27.160156 216.84375 27.132812 215.75 27.792969 215.050781 L 36.085938 206.234375 C 36.476562 205.824219 37.035156 205.625 37.597656 205.695312 C 42.6875 206.371094 49.507812 208.773438 49.792969 208.878906 C 50.210938 209.023438 50.558594 209.324219 50.761719 209.714844 L 60.777344 228.824219 C 61.210938 229.65625 60.914062 230.683594 60.105469 231.152344 C 57.707031 232.550781 55.382812 233.25 53.164062 233.25 Z M 42.210938 219.832031 C 42.957031 219.832031 43.632812 220.308594 43.875 221.035156 C 43.898438 221.097656 46.117188 227.5625 50.773438 229.308594 C 52.601562 229.992188 54.636719 229.851562 56.84375 228.886719 L 47.976562 211.960938 C 46.3125 211.398438 41.75 209.925781 38.015625 209.304688 L 31.617188 216.105469 C 33.683594 217.707031 37.859375 220.40625 41.972656 219.847656 C 42.050781 219.839844 42.132812 219.832031 42.210938 219.832031 Z M 42.210938 219.832031 " fill-opacity="1" fill-rule="nonzero"/><path fill="#726789" d="M 156.199219 146.757812 C 156.199219 146.757812 159.890625 146.335938 163.832031 144.296875 C 165.933594 143.214844 168.5 144.246094 169.207031 146.492188 C 171.738281 154.515625 175.707031 171.269531 169.699219 183.847656 C 169.652344 183.957031 169.597656 184.070312 169.542969 184.179688 C 169.542969 184.179688 172.042969 243.089844 120.347656 261.484375 C 120.347656 261.484375 111.671875 271.699219 94.609375 271.496094 C 93.46875 271.480469 92.476562 270.875 91.910156 269.972656 C 91.578125 269.457031 91.390625 268.84375 91.398438 268.1875 C 91.414062 267.039062 91.578125 265.644531 92.078125 264.113281 C 92.078125 264.113281 88.535156 266.195312 81.882812 265.59375 C 80.292969 265.449219 79.042969 264.152344 78.949219 262.5625 C 78.84375 260.804688 78.445312 258.449219 77.199219 256.4375 C 76.644531 255.542969 75.921875 254.71875 74.984375 254.042969 C 74.316406 253.5625 72.917969 252.59375 71.046875 251.136719 C 70.34375 250.585938 69.578125 249.972656 68.761719 249.285156 C 67.253906 248.019531 65.566406 246.527344 63.804688 244.796875 C 54.011719 235.230469 41.695312 218.597656 42.429688 195.34375 C 42.449219 194.761719 42.476562 194.179688 42.507812 193.59375 C 42.855469 187.664062 44.015625 181.859375 45.90625 176.324219 C 46.054688 175.894531 46.207031 175.457031 46.363281 175.03125 C 48.789062 168.402344 52.269531 162.191406 56.679688 156.652344 C 57.203125 155.988281 57.75 155.332031 58.304688 154.6875 C 60.753906 151.84375 63.460938 149.195312 66.398438 146.78125 C 67.289062 146.050781 68.21875 145.324219 69.183594 144.617188 C 72.574219 142.109375 76.417969 139.738281 80.746094 137.730469 C 92 132.492188 106.492188 129.683594 124.582031 133.15625 C 126.652344 133.554688 128.769531 134.035156 130.933594 134.601562 C 130.933594 134.601562 131.371094 134.824219 132.144531 135.121094 C 132.695312 135.339844 133.417969 135.597656 134.269531 135.847656 C 137.199219 136.695312 141.664062 137.449219 146.09375 136.054688 L 146.101562 136.050781 C 147.015625 135.769531 147.921875 135.390625 148.820312 134.902344 C 150.480469 133.996094 152.566406 134.4375 153.671875 135.964844 C 155.601562 138.625 157.777344 142.8125 156.199219 146.757812 Z M 156.199219 146.757812 " fill-opacity="1" fill-rule="nonzero"/><path fill="#ffffff" d="M 168.511719 180.1875 L 169.507812 184.175781 C 169.460938 184.285156 169.40625 184.398438 169.351562 184.507812 C 169.351562 184.507812 171.851562 243.417969 120.15625 261.8125 C 120.15625 261.8125 107.800781 252.628906 113.320312 235.628906 C 113.542969 234.941406 113.640625 234.210938 113.523438 233.496094 C 112.890625 229.519531 118.988281 212.894531 130.695312 204.253906 C 131.226562 203.863281 131.660156 203.351562 131.980469 202.773438 C 134.832031 197.660156 147.820312 178.589844 168.511719 180.1875 Z M 168.511719 180.1875 " fill-opacity="1" fill-rule="nonzero"/><path fill="#ffffff" d="M 87.257812 218.359375 C 89.324219 218.722656 89.671875 221.53125 87.78125 222.449219 C 86.261719 223.1875 84.714844 224.246094 83.472656 225.757812 C 80.269531 229.671875 76.945312 216.53125 87.257812 218.359375 Z M 87.257812 218.359375 " fill-opacity="1" fill-rule="nonzero"/><path fill="#ffffff" d="M 106.449219 186.402344 C 107.234375 187.96875 109.5625 187.554688 109.828125 185.820312 C 110.195312 183.398438 111.21875 180.574219 113.601562 177.898438 C 118.949219 171.894531 98.90625 171.320312 106.449219 186.402344 Z M 106.449219 186.402344 " fill-opacity="1" fill-rule="nonzero"/><path fill="#504563" d="M 56.675781 156.652344 C 56.734375 156.835938 56.792969 157.015625 56.859375 157.214844 C 57.003906 157.542969 57.121094 157.875 57.21875 158.21875 C 57.777344 159.621094 58.285156 161.210938 59.0625 162.910156 C 59.246094 163.335938 59.425781 163.769531 59.601562 164.214844 C 59.671875 164.441406 59.789062 164.65625 59.902344 164.875 L 60.25 165.535156 C 60.71875 166.410156 61.113281 167.332031 61.703125 168.203125 C 62.253906 169.085938 62.796875 169.992188 63.378906 170.894531 L 65.304688 173.542969 L 65.792969 174.21875 C 65.949219 174.453125 66.121094 174.671875 66.308594 174.878906 L 67.386719 176.179688 L 69.578125 178.832031 C 70.371094 179.667969 71.164062 180.519531 71.964844 181.382812 L 73.15625 182.6875 L 73.761719 183.347656 L 74.394531 183.96875 L 76.960938 186.492188 L 78.238281 187.789062 L 78.886719 188.441406 L 79.558594 189.054688 C 80.199219 189.636719 80.839844 190.222656 81.480469 190.820312 C 82.527344 191.796875 81.621094 193.542969 80.21875 193.25 C 79.34375 193.066406 78.464844 192.875 77.589844 192.675781 C 75.140625 192.085938 72.742188 191.3125 70.308594 190.554688 L 69.398438 190.261719 L 68.507812 189.917969 L 66.726562 189.210938 C 65.535156 188.738281 64.339844 188.253906 63.148438 187.75 C 61.980469 187.195312 60.8125 186.605469 59.644531 186.007812 C 58.484375 185.40625 57.285156 184.835938 56.175781 184.089844 L 52.75 181.941406 C 51.640625 181.144531 50.550781 180.296875 49.445312 179.449219 L 48.609375 178.808594 C 48.332031 178.597656 48.085938 178.339844 47.816406 178.105469 L 46.636719 177.011719 L 46.242188 176.648438 L 45.90625 176.332031 C 46.054688 175.902344 46.207031 175.464844 46.363281 175.039062 C 48.785156 168.40625 52.269531 162.195312 56.675781 156.652344 Z M 56.675781 156.652344 " fill-opacity="1" fill-rule="nonzero"/><path fill="#504563" d="M 46.636719 177.003906 C 46.628906 177.25 46.613281 177.5 46.585938 177.75 C 46.617188 177.644531 46.636719 177.539062 46.65625 177.433594 L 46.695312 177.414062 C 46.722656 177.40625 46.734375 177.386719 46.753906 177.382812 C 46.800781 177.441406 46.847656 177.492188 46.875 177.550781 L 46.933594 177.667969 L 46.992188 177.796875 C 47.007812 177.839844 47.027344 177.882812 47.042969 177.929688 C 47.054688 177.972656 47.070312 178.023438 47.097656 178.078125 C 47.203125 178.289062 47.253906 178.5 47.335938 178.730469 C 47.4375 178.972656 47.523438 179.214844 47.59375 179.46875 C 48.003906 180.488281 48.375 181.648438 48.941406 182.886719 C 49.074219 183.199219 49.207031 183.515625 49.332031 183.839844 C 49.386719 184.003906 49.472656 184.164062 49.558594 184.320312 L 49.804688 184.800781 C 50.148438 185.441406 50.4375 186.113281 50.867188 186.753906 C 51.273438 187.394531 51.664062 188.058594 52.09375 188.714844 L 53.496094 190.652344 L 53.855469 191.140625 C 53.964844 191.316406 54.09375 191.46875 54.226562 191.625 L 55.019531 192.574219 L 56.617188 194.503906 C 57.199219 195.113281 57.773438 195.742188 58.355469 196.371094 L 59.230469 197.320312 L 59.667969 197.808594 L 60.132812 198.257812 L 62.003906 200.097656 L 62.941406 201.042969 L 63.40625 201.519531 L 63.898438 201.964844 C 64.367188 202.390625 64.832031 202.824219 65.296875 203.257812 C 66.0625 203.96875 65.402344 205.246094 64.382812 205.03125 C 63.742188 204.894531 63.101562 204.753906 62.457031 204.613281 C 60.675781 204.183594 58.925781 203.617188 57.148438 203.0625 L 56.484375 202.847656 L 55.832031 202.597656 L 54.535156 202.085938 C 53.664062 201.734375 52.789062 201.382812 51.917969 201.015625 C 51.066406 200.609375 50.21875 200.179688 49.363281 199.742188 C 48.515625 199.300781 47.640625 198.886719 46.828125 198.347656 L 44.328125 196.777344 C 43.691406 196.320312 43.058594 195.832031 42.425781 195.347656 C 42.445312 194.765625 42.472656 194.179688 42.503906 193.59375 C 42.851562 187.667969 44.011719 181.863281 45.902344 176.328125 C 46.050781 175.894531 46.203125 175.460938 46.359375 175.03125 C 46.546875 175.660156 46.636719 176.324219 46.636719 177.003906 Z M 46.636719 177.003906 " fill-opacity="1" fill-rule="nonzero"/><path fill="#504563" d="M 69.179688 144.617188 C 69.308594 145.359375 69.453125 146.15625 69.664062 146.992188 C 69.742188 147.324219 69.8125 147.660156 69.875 148.003906 C 69.902344 148.175781 69.957031 148.34375 70.011719 148.519531 L 70.171875 149.035156 C 70.394531 149.726562 70.554688 150.441406 70.863281 151.144531 C 71.144531 151.847656 71.414062 152.578125 71.710938 153.296875 L 72.75 155.457031 L 73.007812 156.003906 C 73.089844 156.1875 73.183594 156.371094 73.289062 156.550781 L 73.898438 157.625 L 75.117188 159.816406 C 75.578125 160.523438 76.035156 161.242188 76.492188 161.96875 L 77.179688 163.058594 L 77.527344 163.609375 L 77.902344 164.140625 L 79.410156 166.289062 L 80.15625 167.386719 L 80.535156 167.945312 L 80.9375 168.472656 C 81.324219 168.976562 81.703125 169.484375 82.082031 169.996094 C 82.707031 170.832031 81.824219 171.96875 80.859375 171.574219 C 80.253906 171.328125 79.652344 171.074219 79.046875 170.816406 C 77.375 170.070312 75.753906 169.199219 74.105469 168.335938 L 73.492188 168.007812 L 72.898438 167.644531 L 71.710938 166.898438 C 70.921875 166.402344 70.128906 165.898438 69.335938 165.378906 C 68.570312 164.824219 67.8125 164.25 67.050781 163.667969 C 66.296875 163.078125 65.511719 162.511719 64.808594 161.832031 L 62.632812 159.839844 C 61.949219 159.121094 61.277344 158.363281 60.589844 157.609375 L 60.082031 157.046875 C 59.910156 156.855469 59.761719 156.636719 59.601562 156.433594 L 58.664062 155.179688 L 58.300781 154.691406 C 60.75 151.84375 63.457031 149.195312 66.394531 146.785156 C 67.289062 146.050781 68.214844 145.324219 69.179688 144.617188 Z M 69.179688 144.617188 " fill-opacity="1" fill-rule="nonzero"/><path fill="#504563" d="M 146.089844 136.054688 L 144.621094 137.304688 C 143.847656 137.976562 143.074219 138.65625 142.296875 139.351562 C 140.746094 140.734375 139.226562 142.195312 137.75 143.71875 C 136.984375 144.46875 136.300781 145.28125 135.546875 146.066406 C 134.855469 146.886719 134.089844 147.683594 133.394531 148.535156 C 131.890625 150.199219 130.550781 152 128.910156 153.859375 C 128.847656 153.253906 128.832031 152.648438 128.820312 152.035156 C 128.820312 151.425781 128.8125 150.804688 128.890625 150.207031 C 128.949219 149.605469 129.019531 149 129.101562 148.390625 C 129.199219 147.785156 129.339844 147.203125 129.472656 146.601562 L 129.6875 145.707031 C 129.761719 145.410156 129.863281 145.125 129.949219 144.832031 C 130.132812 144.25 130.332031 143.675781 130.527344 143.09375 C 130.996094 141.96875 131.453125 140.824219 132.019531 139.746094 C 132.691406 138.402344 133.441406 137.101562 134.265625 135.847656 C 137.195312 136.699219 141.660156 137.453125 146.089844 136.054688 Z M 146.089844 136.054688 " fill-opacity="1" fill-rule="nonzero"/><path fill="#504563" d="M 132.140625 135.125 C 131.578125 135.667969 131.027344 136.226562 130.480469 136.792969 C 129.714844 137.542969 129.03125 138.351562 128.28125 139.136719 C 127.589844 139.957031 126.820312 140.753906 126.125 141.605469 C 124.625 143.269531 123.289062 145.070312 121.636719 146.929688 C 121.578125 146.320312 121.5625 145.714844 121.546875 145.101562 C 121.546875 144.496094 121.539062 143.875 121.617188 143.277344 C 121.679688 142.671875 121.75 142.066406 121.835938 141.460938 C 121.925781 140.855469 122.070312 140.269531 122.203125 139.671875 L 122.414062 138.777344 C 122.492188 138.480469 122.59375 138.195312 122.675781 137.902344 C 122.859375 137.320312 123.058594 136.742188 123.257812 136.160156 C 123.671875 135.160156 124.085938 134.140625 124.578125 133.15625 C 126.648438 133.550781 128.765625 134.035156 130.929688 134.601562 C 130.929688 134.605469 131.367188 134.828125 132.140625 135.125 Z M 132.140625 135.125 " fill-opacity="1" fill-rule="nonzero"/><path fill="#504563" d="M 82.707031 240.175781 C 81.886719 242.519531 80.972656 244.5625 80.257812 246.6875 C 79.855469 247.710938 79.535156 248.769531 79.160156 249.773438 C 78.84375 250.816406 78.46875 251.808594 78.191406 252.839844 C 77.832031 254.042969 77.5 255.238281 77.199219 256.4375 C 76.644531 255.542969 75.921875 254.71875 74.984375 254.042969 C 74.316406 253.5625 72.917969 252.597656 71.046875 251.136719 C 71.324219 250.683594 71.617188 250.238281 71.914062 249.800781 C 72.578125 248.777344 73.351562 247.8125 74.101562 246.855469 C 74.515625 246.402344 74.917969 245.941406 75.339844 245.5 C 75.550781 245.277344 75.746094 245.054688 75.972656 244.84375 L 76.648438 244.21875 C 77.105469 243.808594 77.546875 243.398438 78.027344 243.023438 C 78.515625 242.648438 79.011719 242.289062 79.511719 241.945312 C 79.988281 241.585938 80.539062 241.289062 81.070312 240.988281 C 81.609375 240.699219 82.148438 240.417969 82.707031 240.175781 Z M 82.707031 240.175781 " fill-opacity="1" fill-rule="nonzero"/><path fill="#504563" d="M 73.097656 237.238281 C 72.28125 239.585938 71.363281 241.628906 70.644531 243.753906 C 70.246094 244.777344 69.925781 245.839844 69.546875 246.839844 C 69.292969 247.671875 69.007812 248.472656 68.757812 249.285156 C 67.253906 248.023438 65.566406 246.527344 63.804688 244.800781 C 64.03125 244.507812 64.265625 244.214844 64.496094 243.925781 C 64.902344 243.46875 65.3125 243.007812 65.730469 242.5625 C 65.941406 242.347656 66.140625 242.117188 66.363281 241.90625 L 67.039062 241.28125 C 67.496094 240.878906 67.9375 240.464844 68.417969 240.085938 C 68.910156 239.714844 69.402344 239.359375 69.898438 239.011719 C 70.382812 238.652344 70.929688 238.351562 71.457031 238.054688 C 72 237.769531 72.535156 237.484375 73.097656 237.238281 Z M 73.097656 237.238281 " fill-opacity="1" fill-rule="nonzero"/><path fill="#000072" d="M 156.445312 146.042969 C 156.347656 146.375 156.625 146.695312 156.964844 146.636719 C 158.25 146.402344 160.972656 145.773438 163.832031 144.296875 C 165.933594 143.214844 168.5 144.246094 169.207031 146.492188 C 171.738281 154.515625 175.707031 171.269531 169.703125 183.847656 C 169.652344 183.957031 169.597656 184.070312 169.542969 184.179688 C 169.542969 184.179688 172.042969 243.003906 120.464844 261.445312 C 120.390625 261.46875 120.328125 261.511719 120.273438 261.570312 C 119.394531 262.550781 110.757812 271.6875 94.609375 271.496094 C 93.796875 271.484375 93.0625 271.175781 92.503906 270.675781 C 92.210938 270.414062 92.382812 269.925781 92.769531 269.875 C 96.3125 269.414062 101.847656 268.042969 107.203125 264.066406 C 107.496094 263.851562 107.449219 263.398438 107.113281 263.257812 C 106.394531 262.960938 105.234375 262.390625 103.882812 261.371094 C 103.554688 261.125 103.671875 260.605469 104.078125 260.535156 C 109.652344 259.554688 136.289062 253.433594 150.515625 224.171875 C 166.464844 191.378906 141.140625 123.191406 85.5625 136.71875 C 85.546875 136.722656 85.527344 136.726562 85.511719 136.730469 C 84.941406 136.871094 84.695312 136.046875 85.246094 135.839844 C 95.78125 131.875 108.816406 130.128906 124.578125 133.15625 C 126.632812 133.550781 128.734375 134.027344 130.882812 134.589844 C 130.910156 134.597656 130.9375 134.609375 130.96875 134.621094 C 131.089844 134.683594 131.5 134.875 132.140625 135.121094 C 132.691406 135.339844 133.414062 135.597656 134.265625 135.847656 C 137.195312 136.695312 141.660156 137.449219 146.089844 136.054688 L 146.097656 136.050781 C 147.011719 135.769531 147.917969 135.390625 148.816406 134.902344 C 150.476562 133.996094 152.5625 134.4375 153.667969 135.964844 C 155.484375 138.464844 157.519531 142.316406 156.445312 146.042969 Z M 156.445312 146.042969 " fill-opacity="0.3" fill-rule="nonzero"/><path fill="#ffffff" d="M 69.179688 144.617188 C 68.214844 145.324219 67.289062 146.054688 66.394531 146.785156 C 63.457031 149.195312 60.75 151.84375 58.300781 154.691406 C 57.746094 155.335938 57.199219 155.988281 56.675781 156.652344 C 52.265625 162.195312 48.785156 168.40625 46.359375 175.03125 C 46.203125 175.460938 46.050781 175.894531 45.902344 176.328125 C 44.011719 181.863281 42.851562 187.667969 42.503906 193.59375 C 42.472656 194.179688 42.445312 194.765625 42.425781 195.347656 C 41.691406 218.601562 54.007812 235.230469 63.800781 244.800781 C 65.566406 246.527344 67.25 248.023438 68.757812 249.285156 C 69.578125 249.972656 70.339844 250.589844 71.042969 251.136719 C 72.914062 252.597656 74.316406 253.5625 74.980469 254.046875 C 75.917969 254.71875 76.640625 255.546875 77.195312 256.4375 C 78.441406 258.449219 78.839844 260.808594 78.945312 262.5625 C 79.039062 264.15625 80.289062 265.453125 81.878906 265.597656 C 88.53125 266.199219 92.074219 264.113281 92.074219 264.113281 C 92.074219 264.113281 92.683594 263.558594 86.03125 262.957031 C 84.441406 262.8125 83.460938 262.667969 83.367188 261.074219 C 83.265625 259.320312 82.863281 256.960938 81.617188 254.949219 C 81.066406 254.054688 80.34375 253.230469 79.402344 252.554688 C 78.738281 252.074219 77.335938 251.109375 75.46875 249.648438 C 74.765625 249.101562 74 248.484375 73.179688 247.796875 C 71.671875 246.535156 69.984375 245.039062 68.222656 243.3125 C 65.441406 240.59375 62.457031 237.304688 59.625 233.457031 C 58.761719 232.28125 58.613281 230.757812 59.109375 229.382812 C 60.085938 226.683594 59.382812 221.433594 57.089844 215.921875 C 54.929688 210.730469 51.945312 206.714844 49.433594 205.269531 C 48.148438 204.527344 47.253906 203.253906 47.109375 201.769531 C 46.859375 199.226562 46.765625 196.589844 46.847656 193.855469 C 46.863281 193.277344 46.894531 192.691406 46.925781 192.105469 C 47.273438 186.175781 48.433594 180.375 50.324219 174.839844 C 50.472656 174.40625 50.625 173.972656 50.78125 173.542969 C 53.207031 166.914062 56.6875 160.707031 61.09375 155.164062 C 61.621094 154.5 62.167969 153.84375 62.722656 153.203125 C 65.167969 150.355469 67.878906 147.707031 70.816406 145.296875 C 71.707031 144.5625 72.636719 143.835938 73.601562 143.128906 C 78.097656 139.804688 83.402344 136.722656 89.558594 134.398438 C 81.488281 136.796875 74.722656 140.519531 69.179688 144.617188 Z M 69.179688 144.617188 " fill-opacity="0.5" fill-rule="nonzero"/><path fill="#000072" d="M 92.671875 239.90625 C 98.785156 235.765625 102.136719 230.140625 104.195312 223.191406 C 104.480469 222.195312 104.753906 221.171875 105.152344 220.132812 C 105.183594 220.050781 105.277344 220.007812 105.363281 220.039062 C 107.257812 226.460938 104.785156 234.335938 99.121094 238.160156 C 97.230469 239.4375 95.03125 240.296875 92.75 240.242188 C 92.574219 240.238281 92.511719 239.988281 92.671875 239.90625 Z M 92.671875 239.90625 " fill-opacity="1" fill-rule="nonzero"/><path fill="#000072" d="M 128.070312 180.820312 C 129.40625 185.113281 128.878906 189.882812 126.753906 193.835938 C 124.574219 197.746094 120.59375 201.066406 116.003906 201.296875 C 115.835938 201.304688 115.769531 201.070312 115.921875 200.992188 C 121.609375 197.066406 124.605469 191.65625 126.347656 185.363281 C 126.855469 183.851562 127.144531 182.378906 127.722656 180.824219 C 127.765625 180.65625 128.027344 180.648438 128.070312 180.820312 Z M 128.070312 180.820312 " fill-opacity="1" fill-rule="nonzero"/><path fill="#000072" d="M 95.128906 273.25 C 94.949219 273.25 94.769531 273.25 94.589844 273.246094 C 91.828125 273.214844 89.613281 270.933594 89.644531 268.167969 C 89.648438 267.714844 89.675781 267.269531 89.722656 266.820312 C 87.832031 267.289062 85.144531 267.648438 81.722656 267.339844 C 79.285156 267.121094 77.339844 265.109375 77.195312 262.664062 C 77.058594 260.34375 76.386719 257.210938 73.960938 255.464844 L 73.582031 255.195312 C 60.511719 245.902344 38.863281 225.53125 40.753906 193.492188 C 41.851562 174.828125 50.792969 157.3125 65.285156 145.425781 C 77.867188 135.109375 99.550781 124.5625 131.375 132.910156 C 131.492188 132.941406 131.605469 132.984375 131.714844 133.039062 C 131.800781 133.082031 140.625 137.367188 147.972656 133.367188 C 150.414062 132.039062 153.472656 132.714844 155.089844 134.9375 C 156.886719 137.410156 158.710938 140.863281 158.484375 144.488281 C 159.75 144.144531 161.371094 143.597656 163.027344 142.742188 C 164.5 141.980469 166.21875 141.90625 167.742188 142.539062 C 169.246094 143.164062 170.390625 144.414062 170.878906 145.964844 C 173.691406 154.867188 177.449219 171.628906 171.3125 184.558594 C 171.371094 187.21875 171.371094 200.8125 165.992188 216.503906 C 160.570312 232.320312 148.425781 253.183594 121.355469 262.988281 C 119.570312 264.890625 110.824219 273.25 95.128906 273.25 Z M 92.070312 262.363281 C 92.464844 262.363281 92.859375 262.496094 93.175781 262.757812 C 93.738281 263.210938 93.96875 263.960938 93.746094 264.648438 C 93.367188 265.820312 93.167969 267.015625 93.15625 268.207031 C 93.144531 269.042969 93.808594 269.730469 94.628906 269.742188 C 110.707031 269.9375 118.929688 260.449219 119.011719 260.351562 C 119.210938 260.117188 119.46875 259.9375 119.757812 259.835938 C 140.632812 252.40625 155.054688 237.480469 162.632812 215.476562 C 168.324219 198.941406 167.796875 184.398438 167.789062 184.253906 C 167.777344 183.960938 167.839844 183.667969 167.96875 183.402344 C 173.835938 171.523438 170.210938 155.511719 167.53125 147.019531 C 167.351562 146.449219 166.945312 146.007812 166.394531 145.777344 C 165.832031 145.539062 165.191406 145.570312 164.636719 145.855469 C 160.453125 148.015625 156.558594 148.480469 156.394531 148.5 C 155.78125 148.566406 155.175781 148.308594 154.800781 147.820312 C 154.425781 147.328125 154.335938 146.675781 154.566406 146.105469 C 155.828125 142.953125 154.003906 139.414062 152.246094 137 C 151.664062 136.195312 150.546875 135.957031 149.652344 136.445312 C 141.207031 141.042969 131.765625 136.941406 130.316406 136.257812 C 100.011719 128.363281 79.4375 138.355469 67.507812 148.136719 C 53.773438 159.402344 45.296875 176.007812 44.253906 193.699219 C 42.464844 224.050781 63.132812 243.464844 75.613281 252.335938 L 76.007812 252.621094 C 79.554688 255.167969 80.515625 259.378906 80.695312 262.457031 C 80.738281 263.183594 81.3125 263.78125 82.035156 263.847656 C 87.949219 264.382812 91.160156 262.609375 91.191406 262.59375 C 91.46875 262.441406 91.769531 262.363281 92.070312 262.363281 Z M 92.070312 262.363281 " fill-opacity="1" fill-rule="nonzero"/><path fill="#000072" d="M 123.855469 220.441406 C 126.496094 222.484375 129.269531 224.492188 131.628906 226.917969 C 131.675781 226.964844 131.636719 227.050781 131.570312 227.046875 C 128.828125 226.867188 126.359375 225.890625 123.972656 224.664062 C 123.183594 224.234375 122.449219 223.804688 121.683594 223.199219 C 119.917969 221.71875 122.003906 219.078125 123.855469 220.441406 Z M 123.855469 220.441406 " fill-opacity="1" fill-rule="nonzero"/><path fill="#000072" d="M 120.71875 263.199219 C 117.867188 263.464844 114.816406 263.433594 112.175781 262.21875 C 114.15625 261.835938 116.171875 261.015625 118.082031 260.386719 C 118.714844 260.164062 119.375 259.957031 119.980469 259.773438 Z M 120.71875 263.199219 " fill-opacity="1" fill-rule="nonzero"/><path fill="#000072" d="M 167.8125 184.457031 C 167.402344 181.808594 166.828125 178.132812 166.363281 175.53125 C 165.847656 172.480469 165.058594 169.601562 164.75 166.480469 C 167.605469 170.246094 168.863281 174.886719 170.214844 179.335938 C 170.628906 180.855469 170.988281 182.339844 171.277344 183.898438 C 171.277344 183.898438 167.8125 184.457031 167.8125 184.457031 Z M 167.8125 184.457031 " fill-opacity="1" fill-rule="nonzero"/><path fill="#000072" d="M 156.730469 148.425781 C 154.910156 148.785156 153.160156 148.871094 151.3125 148.195312 C 152.511719 146.8125 154.011719 145.785156 155.667969 145.082031 C 155.667969 145.085938 156.730469 148.425781 156.730469 148.425781 Z M 156.730469 148.425781 " fill-opacity="1" fill-rule="nonzero"/><path fill="#000072" d="M 116.269531 217.105469 C 116.269531 217.105469 113.839844 220.332031 112.867188 223.363281 C 112.445312 224.671875 113.183594 226.0625 114.492188 226.480469 C 116.859375 227.234375 120.886719 227.546875 124.253906 222.972656 C 127.621094 218.402344 126.125 214.65625 124.695312 212.621094 C 123.910156 211.496094 122.355469 211.207031 121.234375 212 C 118.628906 213.832031 116.269531 217.105469 116.269531 217.105469 Z M 116.269531 217.105469 " fill-opacity="1" fill-rule="nonzero"/><g mask="url(#7db55be1c4)"><g transform="matrix(1, 0, 0, 1, 115, 217)"><g clip-path="url(#49f7832d19)"><g clip-path="url(#c94521271e)"><path fill="#ffffff" d="M 4.011719 1.636719 C 4.125 1.707031 4.195312 1.832031 4.230469 2.011719 C 4.261719 2.191406 4.25 2.410156 4.199219 2.671875 C 4.144531 2.929688 4.054688 3.210938 3.921875 3.507812 C 3.792969 3.808594 3.632812 4.105469 3.445312 4.402344 C 3.257812 4.695312 3.054688 4.964844 2.835938 5.207031 C 2.617188 5.453125 2.402344 5.652344 2.191406 5.808594 C 1.976562 5.96875 1.78125 6.070312 1.605469 6.113281 C 1.429688 6.160156 1.28125 6.148438 1.167969 6.074219 C 1.054688 6 0.984375 5.875 0.949219 5.695312 C 0.917969 5.515625 0.929688 5.296875 0.980469 5.039062 C 1.035156 4.777344 1.125 4.5 1.257812 4.199219 C 1.386719 3.898438 1.546875 3.601562 1.734375 3.308594 C 1.921875 3.015625 2.125 2.746094 2.34375 2.5 C 2.5625 2.257812 2.777344 2.054688 2.988281 1.898438 C 3.203125 1.742188 3.398438 1.640625 3.574219 1.59375 C 3.75 1.550781 3.898438 1.5625 4.011719 1.636719 Z M 4.011719 1.636719 " fill-opacity="1" fill-rule="nonzero"/></g></g></g></g><path fill="#726789" d="M 344.617188 251.945312 C 343.941406 254.015625 343.109375 256.167969 342.125 258.402344 C 335.988281 272.296875 321.328125 282.621094 304.59375 289.28125 C 292.992188 293.890625 280.394531 296.738281 268.957031 297.785156 C 248.910156 299.617188 232.417969 295.925781 231.046875 286.515625 C 231.019531 286.351562 231 286.195312 230.976562 286.039062 C 230.269531 280.71875 232.34375 275.800781 235.96875 272.542969 C 238.925781 269.890625 242.917969 268.34375 247.28125 268.59375 C 252.8125 268.917969 258.019531 268.957031 262.894531 268.746094 C 278.378906 268.09375 290.574219 264.972656 299.679688 260.617188 C 313.464844 254.035156 320.179688 244.640625 320.550781 236.757812 C 320.625 234.992188 320.386719 233.296875 319.84375 231.734375 C 318.992188 229.300781 317.863281 227.347656 316.574219 225.789062 C 314.410156 223.1875 311.792969 221.679688 309.210938 220.839844 C 303.605469 219.011719 298.210938 220.320312 298.210938 220.320312 C 296.851562 214.464844 292.949219 206.878906 292.949219 206.878906 C 303.40625 205.308594 314.863281 205.929688 324.535156 209.214844 C 341.09375 214.832031 352.425781 228.273438 344.617188 251.945312 Z M 344.617188 251.945312 " fill-opacity="1" fill-rule="nonzero"/><path fill="#504563" d="M 304.59375 289.28125 C 292.992188 293.890625 280.394531 296.738281 268.957031 297.785156 C 270.472656 288.054688 266.550781 276.710938 262.894531 268.746094 C 278.378906 268.09375 290.574219 264.972656 299.679688 260.617188 C 304.296875 269.851562 304.992188 280.851562 304.59375 289.28125 Z M 304.59375 289.28125 " fill-opacity="1" fill-rule="nonzero"/><path fill="#504563" d="M 344.617188 251.945312 C 335.765625 241.375 326.785156 237.828125 320.550781 236.757812 C 320.625 234.992188 320.386719 233.296875 319.84375 231.734375 C 317.570312 225.226562 313.335938 222.183594 309.210938 220.839844 C 313.234375 214.984375 318.851562 211.398438 324.535156 209.214844 C 341.09375 214.832031 352.425781 228.273438 344.617188 251.945312 Z M 344.617188 251.945312 " fill-opacity="1" fill-rule="nonzero"/><path fill="#000072" d="M 344.617188 251.945312 C 343.941406 254.015625 343.109375 256.167969 342.125 258.402344 C 335.988281 272.296875 321.328125 282.621094 304.59375 289.28125 C 292.992188 293.890625 280.394531 296.738281 268.957031 297.785156 C 248.910156 299.617188 232.417969 295.925781 231.046875 286.515625 C 231.019531 286.351562 231 286.195312 230.976562 286.039062 C 230.269531 280.71875 232.34375 275.800781 235.96875 272.542969 C 237.890625 279.488281 245.144531 292.816406 272.320312 288.390625 C 308.566406 282.492188 339.976562 267.878906 335.546875 234.492188 C 333.0625 215.734375 326.757812 220.578125 316.574219 225.789062 C 314.410156 223.1875 311.792969 221.679688 309.210938 220.839844 C 303.605469 219.011719 298.210938 220.320312 298.210938 220.320312 C 296.851562 214.464844 292.949219 206.878906 292.949219 206.878906 C 303.40625 205.308594 314.863281 205.929688 324.535156 209.214844 C 341.09375 214.832031 352.425781 228.273438 344.617188 251.945312 Z M 344.617188 251.945312 " fill-opacity="0.3" fill-rule="nonzero"/><path fill="#ffffff" d="M 236.59375 277.546875 C 239.550781 274.894531 243.542969 273.347656 247.910156 273.601562 C 253.441406 273.925781 258.644531 273.960938 263.519531 273.75 C 279.003906 273.097656 291.203125 269.976562 300.304688 265.621094 C 314.09375 259.039062 320.808594 249.648438 321.175781 241.761719 C 321.25 240.082031 321.027344 238.46875 320.535156 236.964844 C 320.058594 244.808594 313.347656 254.089844 299.679688 260.617188 C 290.574219 264.972656 278.378906 268.09375 262.894531 268.746094 C 258.019531 268.957031 252.8125 268.917969 247.28125 268.59375 C 242.917969 268.34375 238.925781 269.890625 235.96875 272.542969 C 232.34375 275.800781 230.269531 280.71875 230.976562 286.039062 C 231 286.195312 231.019531 286.351562 231.046875 286.515625 C 231.132812 287.113281 231.28125 287.683594 231.484375 288.234375 C 231.691406 284.019531 233.617188 280.222656 236.59375 277.546875 Z M 236.59375 277.546875 " fill-opacity="0.5" fill-rule="nonzero"/><path fill="#000072" d="M 259.40625 300 C 255.726562 300 252.226562 299.785156 248.976562 299.34375 C 237.246094 297.746094 230.261719 293.28125 229.308594 286.769531 L 229.238281 286.269531 C 228.558594 281.175781 230.175781 276.101562 233.675781 272.335938 C 237.203125 268.542969 242.203125 266.539062 247.386719 266.847656 C 293.820312 269.5625 310.566406 252.375 314.59375 247.046875 C 318.390625 242.019531 319.703125 236.648438 318.1875 232.3125 C 313.394531 218.613281 299.226562 221.878906 298.628906 222.023438 C 298.171875 222.132812 297.691406 222.058594 297.292969 221.8125 C 296.894531 221.566406 296.609375 221.171875 296.503906 220.71875 C 295.207031 215.136719 291.429688 207.753906 291.394531 207.683594 C 291.132812 207.179688 291.132812 206.585938 291.390625 206.082031 C 291.648438 205.578125 292.132812 205.230469 292.691406 205.148438 C 310.238281 202.511719 332.613281 205.964844 343.054688 219.621094 C 348.296875 226.476562 352.667969 238.890625 343.734375 259.113281 C 337.671875 272.832031 322.804688 284.578125 301.878906 292.1875 C 288.019531 297.226562 272.597656 300 259.40625 300 Z M 246.359375 270.324219 C 242.519531 270.324219 238.871094 271.898438 236.246094 274.722656 C 233.464844 277.714844 232.179688 281.753906 232.71875 285.804688 L 232.78125 286.261719 C 233.734375 292.777344 243.632812 295.074219 249.449219 295.867188 C 263.828125 297.824219 283.457031 295.148438 300.675781 288.890625 C 320.695312 281.613281 334.84375 270.53125 340.519531 257.695312 C 347.136719 242.71875 347.050781 230.625 340.261719 221.75 C 331.144531 209.824219 311.699219 206.445312 295.597656 208.296875 C 296.71875 210.691406 298.453125 214.648438 299.507812 218.335938 C 304.117188 217.773438 316.75 217.570312 321.5 231.15625 C 323.410156 236.621094 321.914062 243.179688 317.394531 249.15625 C 305.9375 264.324219 279.6875 272.246094 247.179688 270.347656 C 246.90625 270.332031 246.632812 270.324219 246.359375 270.324219 Z M 246.359375 270.324219 " fill-opacity="1" fill-rule="nonzero"/><path fill="#ffffff" d="M 212.140625 133.820312 C 212.035156 133.820312 211.929688 133.8125 211.824219 133.792969 L 202.875 132.050781 C 202.226562 131.925781 201.714844 131.417969 201.578125 130.773438 C 201.445312 130.121094 201.714844 129.457031 202.265625 129.082031 L 209.71875 124.007812 L 204.636719 123.019531 C 203.746094 122.847656 203.164062 121.984375 203.335938 121.09375 C 203.511719 120.203125 204.375 119.621094 205.265625 119.796875 L 214.210938 121.535156 C 214.863281 121.660156 215.375 122.167969 215.507812 122.816406 C 215.644531 123.464844 215.371094 124.128906 214.824219 124.503906 L 207.371094 129.582031 L 212.453125 130.566406 C 213.34375 130.742188 213.925781 131.601562 213.753906 132.492188 C 213.601562 133.277344 212.914062 133.820312 212.140625 133.820312 Z M 212.140625 133.820312 " fill-opacity="1" fill-rule="nonzero"/><path fill="#ffffff" d="M 196.796875 113.636719 C 196.691406 113.636719 196.585938 113.628906 196.480469 113.605469 L 181.539062 110.703125 C 180.886719 110.578125 180.375 110.070312 180.242188 109.421875 C 180.105469 108.773438 180.378906 108.109375 180.925781 107.734375 L 195.550781 97.769531 L 184.476562 95.617188 C 183.585938 95.445312 183.003906 94.582031 183.175781 93.691406 C 183.351562 92.800781 184.214844 92.222656 185.105469 92.394531 L 200.046875 95.300781 C 200.699219 95.425781 201.210938 95.933594 201.34375 96.578125 C 201.476562 97.230469 201.207031 97.894531 200.660156 98.269531 L 186.035156 108.230469 L 197.109375 110.382812 C 198 110.558594 198.582031 111.417969 198.410156 112.308594 C 198.253906 113.09375 197.566406 113.636719 196.796875 113.636719 Z M 196.796875 113.636719 " fill-opacity="1" fill-rule="nonzero"/><path fill="#ffffff" d="M 232.28125 100.1875 C 232.171875 100.1875 232.058594 100.179688 231.945312 100.15625 L 210.964844 96.078125 C 210.269531 95.945312 209.726562 95.40625 209.582031 94.710938 C 209.4375 94.019531 209.726562 93.308594 210.3125 92.910156 L 231.941406 78.175781 L 215.089844 74.898438 C 214.140625 74.714844 213.519531 73.796875 213.703125 72.84375 C 213.886719 71.894531 214.808594 71.273438 215.761719 71.457031 L 236.742188 75.535156 C 237.4375 75.667969 237.980469 76.210938 238.125 76.902344 C 238.269531 77.597656 237.980469 78.304688 237.394531 78.703125 L 215.765625 93.4375 L 232.613281 96.714844 C 233.566406 96.898438 234.1875 97.820312 234.003906 98.769531 C 233.839844 99.609375 233.105469 100.1875 232.28125 100.1875 Z M 232.28125 100.1875 " fill-opacity="1" fill-rule="nonzero"/><path stroke-linecap="butt" transform="matrix(0.181206, 0, 0, 0.181206, 31.991802, 291.394258)" fill="none" stroke-linejoin="miter" d="M 126.929828 134.991532 L 126.929828 54.303628 L 84.548738 54.303628 L 84.548738 21.666309 L 222.772312 21.666309 L 222.772312 54.303628 L 180.499008 54.303628 L 180.499008 134.991532 Z M 221.241764 134.991532 L 221.241764 21.666309 L 307.857847 21.666309 C 323.227998 21.666309 335.407711 23.239971 344.396986 26.387295 C 353.407818 29.556176 359.874922 33.867579 363.755184 39.364618 C 367.678561 44.840099 369.640249 51.11319 369.640249 58.11922 C 369.640249 65.858188 367.333649 72.346849 362.720448 77.649875 C 358.107247 82.931343 351.403015 86.596035 342.650868 88.622395 L 342.650868 88.773294 C 347.134726 90.002044 350.734748 91.489478 353.407818 93.27871 C 356.124001 95.046385 358.279703 97.503884 359.896479 100.651209 C 361.534812 103.82009 362.914461 108.088378 364.035426 113.477632 L 365.264175 118.198618 C 366.040228 121.669297 366.837837 124.644165 367.592333 127.058551 C 368.368385 129.494493 369.27378 132.146006 370.28696 134.991532 L 317.019578 134.991532 C 316.329753 133.590326 315.661486 131.736423 315.05789 129.451379 C 314.432736 127.144779 313.721355 123.954341 312.923745 119.880065 L 311.845894 115.00818 C 311.328526 111.839299 309.71175 109.44647 306.995566 107.765023 C 304.322497 106.083576 299.730853 105.242853 293.220634 105.242853 L 274.940286 105.242853 L 274.940286 134.991532 Z M 274.940286 76.270226 L 301.304515 76.270226 C 306.305742 76.270226 310.099776 75.213932 312.751289 73.144459 C 315.402802 71.053428 316.71778 68.143231 316.71778 64.392311 C 316.71778 60.813847 315.402802 58.140777 312.751289 56.373102 C 310.099776 54.583869 306.305742 53.700032 301.304515 53.700032 L 274.940286 53.700032 Z M 445.499382 138.354426 C 430.732827 138.354426 418.423772 137.125676 408.55066 134.711291 C 398.677547 132.275348 390.830794 128.610656 384.967286 123.717214 C 379.125335 118.823771 374.943275 112.787807 372.37799 105.587765 C 369.855819 98.344608 368.583955 89.95893 368.583955 80.409172 L 368.583955 21.666309 L 422.131578 21.666309 L 422.131578 81.594808 C 422.131578 96.038008 429.913661 103.259607 445.499382 103.259607 C 453.303021 103.259607 459.123415 101.448818 462.917449 97.784126 C 466.754598 94.119433 468.651615 88.837965 468.651615 81.918163 L 468.651615 21.666309 L 522.371694 21.666309 L 522.371694 80.840313 C 522.371694 90.109829 521.142944 98.301494 518.663888 105.436866 C 516.249502 112.529123 512.153669 118.521973 506.376389 123.415415 C 500.642224 128.287301 492.795471 131.995107 482.83613 134.560392 C 472.898347 137.082562 460.438392 138.354426 445.499382 138.354426 Z M 527.847176 134.991532 L 527.847176 21.666309 L 653.244326 21.666309 L 653.244326 53.700032 L 581.545698 53.700032 L 581.545698 69.113297 L 645.613143 69.113297 L 645.613143 97.309871 L 581.545698 97.309871 L 581.545698 134.991532 Z M 653.093427 134.991532 L 653.093427 21.666309 L 778.490578 21.666309 L 778.490578 53.700032 L 706.791949 53.700032 L 706.791949 69.113297 L 770.859395 69.113297 L 770.859395 97.309871 L 706.791949 97.309871 L 706.791949 134.991532 Z M 778.339679 134.991532 L 778.339679 21.666309 L 832.038201 21.666309 L 832.038201 102.828467 L 894.4242 102.828467 L 894.4242 134.991532 Z M 895.631393 134.991532 L 895.631393 21.666309 L 1022.408193 21.666309 L 1022.408193 52.77308 L 949.351472 52.77308 L 949.351472 65.125249 L 1015.85486 65.125249 L 1015.85486 89.527789 L 949.351472 89.527789 L 949.351472 103.863204 L 1024.08964 103.863204 L 1024.08964 134.991532 Z M 895.631393 134.991532 " stroke="#1e5175" stroke-width="36.232288" stroke-opacity="1" stroke-miterlimit="4"/><g fill="#91c4f6" fill-opacity="1"><g transform="translate(47.091318, 315.857003)"><g><path d="M 7.90625 0 L 7.90625 -14.625 L 0.21875 -14.625 L 0.21875 -20.53125 L 25.265625 -20.53125 L 25.265625 -14.625 L 17.609375 -14.625 L 17.609375 0 Z M 7.90625 0 "/></g></g></g><g fill="#91c4f6" fill-opacity="1"><g transform="translate(70.089577, 315.857003)"><g><path d="M 1.984375 0 L 1.984375 -20.53125 L 17.6875 -20.53125 C 20.46875 -20.53125 22.671875 -20.242188 24.296875 -19.671875 C 25.929688 -19.109375 27.101562 -18.328125 27.8125 -17.328125 C 28.53125 -16.335938 28.890625 -15.207031 28.890625 -13.9375 C 28.890625 -12.53125 28.46875 -11.347656 27.625 -10.390625 C 26.789062 -9.429688 25.578125 -8.769531 23.984375 -8.40625 L 23.984375 -8.375 C 24.796875 -8.15625 25.445312 -7.882812 25.9375 -7.5625 C 26.425781 -7.238281 26.816406 -6.789062 27.109375 -6.21875 C 27.410156 -5.644531 27.660156 -4.867188 27.859375 -3.890625 L 28.078125 -3.046875 C 28.222656 -2.410156 28.363281 -1.875 28.5 -1.4375 C 28.644531 -1 28.8125 -0.519531 29 0 L 19.34375 0 C 19.21875 -0.257812 19.097656 -0.59375 18.984375 -1 C 18.878906 -1.414062 18.753906 -1.992188 18.609375 -2.734375 L 18.40625 -3.625 C 18.3125 -4.195312 18.019531 -4.632812 17.53125 -4.9375 C 17.050781 -5.238281 16.21875 -5.390625 15.03125 -5.390625 L 11.71875 -5.390625 L 11.71875 0 Z M 11.71875 -10.640625 L 16.5 -10.640625 C 17.40625 -10.640625 18.097656 -10.828125 18.578125 -11.203125 C 19.054688 -11.585938 19.296875 -12.117188 19.296875 -12.796875 C 19.296875 -13.441406 19.054688 -13.925781 18.578125 -14.25 C 18.097656 -14.570312 17.40625 -14.734375 16.5 -14.734375 L 11.71875 -14.734375 Z M 11.71875 -10.640625 "/></g></g></g><g fill="#91c4f6" fill-opacity="1"><g transform="translate(97.289473, 315.857003)"><g><path d="M 15.421875 0.609375 C 12.753906 0.609375 10.523438 0.390625 8.734375 -0.046875 C 6.941406 -0.492188 5.515625 -1.160156 4.453125 -2.046875 C 3.398438 -2.929688 2.644531 -4.023438 2.1875 -5.328125 C 1.726562 -6.640625 1.5 -8.160156 1.5 -9.890625 L 1.5 -20.53125 L 11.1875 -20.53125 L 11.1875 -9.671875 C 11.1875 -7.054688 12.597656 -5.75 15.421875 -5.75 C 16.835938 -5.75 17.890625 -6.078125 18.578125 -6.734375 C 19.273438 -7.398438 19.625 -8.363281 19.625 -9.625 L 19.625 -20.53125 L 29.359375 -20.53125 L 29.359375 -9.8125 C 29.359375 -8.132812 29.132812 -6.648438 28.6875 -5.359375 C 28.25 -4.066406 27.507812 -2.976562 26.46875 -2.09375 C 25.425781 -1.21875 24 -0.546875 22.1875 -0.078125 C 20.382812 0.378906 18.128906 0.609375 15.421875 0.609375 Z M 15.421875 0.609375 "/></g></g></g><g fill="#91c4f6" fill-opacity="1"><g transform="translate(125.650349, 315.857003)"><g><path d="M 1.984375 0 L 1.984375 -20.53125 L 24.703125 -20.53125 L 24.703125 -14.734375 L 11.71875 -14.734375 L 11.71875 -11.9375 L 23.328125 -11.9375 L 23.328125 -6.828125 L 11.71875 -6.828125 L 11.71875 0 Z M 1.984375 0 "/></g></g></g><g fill="#91c4f6" fill-opacity="1"><g transform="translate(148.344549, 315.857003)"><g><path d="M 1.984375 0 L 1.984375 -20.53125 L 24.703125 -20.53125 L 24.703125 -14.734375 L 11.71875 -14.734375 L 11.71875 -11.9375 L 23.328125 -11.9375 L 23.328125 -6.828125 L 11.71875 -6.828125 L 11.71875 0 Z M 1.984375 0 "/></g></g></g><g fill="#91c4f6" fill-opacity="1"><g transform="translate(171.038749, 315.857003)"><g><path d="M 1.984375 0 L 1.984375 -20.53125 L 11.71875 -20.53125 L 11.71875 -5.828125 L 23.03125 -5.828125 L 23.03125 0 Z M 1.984375 0 "/></g></g></g><g fill="#91c4f6" fill-opacity="1"><g transform="translate(192.295537, 315.857003)"><g><path d="M 1.984375 0 L 1.984375 -20.53125 L 24.953125 -20.53125 L 24.953125 -14.890625 L 11.71875 -14.890625 L 11.71875 -12.65625 L 23.765625 -12.65625 L 23.765625 -8.234375 L 11.71875 -8.234375 L 11.71875 -5.640625 L 25.265625 -5.640625 L 25.265625 0 Z M 1.984375 0 "/></g></g></g></svg>